<?xml version="1.0" encoding="utf-8"?>
<!-- Generator: Adobe Illustrator 18.0.0, SVG Export Plug-In . SVG Version: 6.00 Build 0)  -->
<!DOCTYPE svg PUBLIC "-//W3C//DTD SVG 1.1//EN" "http://www.w3.org/Graphics/SVG/1.1/DTD/svg11.dtd">
<svg version="1.1" id="Layer_1" xmlns="http://www.w3.org/2000/svg" xmlns:xlink="http://www.w3.org/1999/xlink" x="0px" y="0px"
	 width="200px" height="200px" viewBox="-100 1180 200 200" enable-background="new -100 1180 200 200" xml:space="preserve">
<path d="M44.2,1224.2c-25.6-12.9-48.5,3.8-48.5,3.8c-2.8-11.3-18.2-12.4-23.4-12c-5.2,0.4-24.3,3.4-32.7,25.5
	c-8.4,22.1-0.3,34.3,7.6,43.9s27.3,10.8,27.6,10.9c0.3,0.1-2.4,14.6-2.2,15.2c0.2,0.5,6.1,1.6,6.1,1.6l0.7,26.4c0,0,5.1,0.8,5.4-0.7
	c0.3-1.4-0.7-26.4-0.7-26.4s3.7-0.2,4.3-2.5c0.6-2.3-5.8-14.4-5.8-14.4l4-0.4c0,0,4,4,7.6,7c3.6,3.1,10,6.4,10,6.4s-5.1,10-5.1,11.1
	c0,1.1,5.6,2.7,5.6,2.7s1,20,1,20.9c0,0.9,4.7,1,5.4-0.1c0.7-1.1-1.3-19.7-1.3-19.7s5.7,1.1,6.9,0.2c1.2-0.9,0.3-11.7,0.3-11.7
	c24.1,2,42.5-19.5,44.8-27C64.1,1277.4,69.8,1237.1,44.2,1224.2L44.2,1224.2z M-33.4,1289.1c-10-2.6-19.9-10-23.3-20.8
	c-3.3-10.8,0.3-26.4,7.5-35c7.2-8.6,11.3-9.4,16.9-11c3.8-1,13.3-1,17.4,1s6.7,5.9,6.9,7.1c0.2,1.2-1.5,3.1-1.5,3.1s-7-3.5-7.7-3.5
	c-0.7,0-1.7,1.2-1.3,1.8c0.4,0.6,6.5,3.6,6.5,4c-0.1,0.3-1.7,2.4-2.1,2.4s-6-3.6-6.6-3.6s-1.6,1-1.2,1.8c0.3,0.8,6.2,4.2,6.2,4.2
	s-0.6,2.1-1.5,2.1c-0.9-0.1-5.2-3.5-5.9-3.5c-0.7,0-1.5,1.6-1.3,1.9c0.2,0.3,5.6,4.1,5.5,4.5c-0.1,0.4-0.5,2-0.9,2
	c-0.4,0-5.2-3.1-5.8-3.1c-0.6,0-1.6,1.8-1.1,2.3c0.5,0.5,5.5,3.1,5.5,3.1s0.6,2.1-0.6,2.1c-1.2,0-5.9-2.7-6.3-2.6
	c-0.4,0.2-1.2,2-0.8,2.3c0.4,0.3,6.4,2.9,6.4,3.2s-0.5,3.9-0.8,3.7c-0.3-0.2-5-2.9-5.3-2.7c-0.3,0.2-0.9,1.2-0.2,2.3
	c0.7,1.2,5.1,3,5.2,3.4c0.1,0.4-0.6,2.7-0.6,2.7l-4.8-2.1c0,0-0.9,2.2-0.2,2.6c0.7,0.3,5,2.1,5.2,2.4c0.2,0.2,0.2,3.1-0.2,3.1
	c-0.4-0.1-5.1-1.6-5.1-1.6s-0.7,2.1,0.1,2.5c0.8,0.4,5,2.3,5.2,2.5c0.2,0.2,1.4,5.2,1.1,5.2s-5.6-3-5.9-3s-1.1,1.6-0.4,2.2
	c0.7,0.6,7.9,4.2,8.1,4.7c0.2,0.5,0.3,2.7,0.3,2.7s-6.6-2.9-7-2.9c-0.4,0-1.7,1.3-0.4,2.2c1.3,0.9,8.3,4.5,8.3,4.5
	S-23.4,1291.6-33.4,1289.1L-33.4,1289.1z M-18.5,1307.2c-0.5,0.4-3.3,1.2-3.3,0.3c0-0.8,0.7-3.2,1.1-3.8
	C-20.2,1303.1-18,1306.7-18.5,1307.2L-18.5,1307.2z M11.4,1318.2c-0.7,0-5.4-0.6-5.6-1.5c-0.2-0.9,1.9-5.1,2.2-5.7
	c0.1-0.2,2,0.2,2.6,0.8C11.2,1312.5,12.1,1318.2,11.4,1318.2L11.4,1318.2z M58.7,1271.8c-0.6-0.3-10.5-9.8-11.3-9.8
	c-0.8,0-1.3,2-1.3,2s12.4,10.9,12.4,11.3c0,0.4-1.2,4.9-1.4,4.8c-0.2-0.2-11.6-11.7-11.8-11.7c-0.2,0-1.8,2.1-1.3,2.6
	c0.5,0.5,12.4,11.6,12.3,12.5c-0.1,0.8-1.8,4.4-2.4,4s-11.1-11.3-11.8-11.4c-0.7-0.1-1.9,2.1-1.7,2.3c0.2,0.2,12.2,11.1,11.6,12.2
	c-0.7,1.1-1.7,3.2-2.4,2.8c-0.7-0.4-9.8-10-10.4-10.1c-0.6-0.2-2.6,0.9-2.5,1.6c0.2,0.7,11.2,10.6,10.8,11.1
	c-0.4,0.4-3.6,2.6-4.1,2.2c-0.5-0.4-9.3-9.6-9.7-9.6s-2.2,1.7-1.7,2.2c0.5,0.5,9.8,9.9,9.5,10.1c-0.2,0.2-3.7,2-4,1.8
	c-0.2-0.2-8.5-10-8.9-10.1c-0.4-0.1-2.4,0.4-2.1,1.2c0.3,0.8,8.5,10.7,8,10.7s-3.9,0.7-4.2,0.6c-0.3-0.2-8.5-11-9-11.1
	c-0.5-0.2-2.2,0.2-2.2,0.9s8.8,11.1,7.9,11.2c-0.9,0.2-3.8,0.4-4.5-0.2c-0.7-0.6-6.7-10-7.4-10.1c-0.7-0.2-2.5,0.5-2.5,1
	s6.2,9.4,5.6,9.4c-0.6,0-2.9,0.7-3.3-0.1c-0.4-0.7-4.5-6.4-5.1-6.4c-0.7,0-1.7,1.2-1.3,2.1c0.4,0.9,2.4,4.1,2,4.1s-8.3-3-14.6-8.7
	c-6.4-5.7-15.1-16.7-14.5-31.8c0.6-15,8.3-23.5,10.8-26.5c5.5-6.7,14-15.3,31.3-14s21.1,6,23.9,8.4c2.9,2.3,5.1,8.5,4.7,8.4
	c-0.3-0.1-3.2-2.1-3.2-2.1s-1.4,2-1,2.4c0.4,0.4,6.6,4.5,7.1,5.3c0.4,0.8,1.7,3,1.3,3.1c-0.3,0.1-5.1-3.3-5.5-3.3
	c-0.4,0-1.7,1.8-0.9,2.4c0.8,0.7,7.8,5.7,8.2,6.3c0.3,0.5,0.4,4.1,0.4,4.1l-8.5-5.5c0,0-1.9,1.3-1.1,2c0.8,0.7,10,6.7,10.4,7.3
	C59.5,1264,59.3,1272.2,58.7,1271.8L58.7,1271.8z M-36.8,1232.2c-1-0.2-3.6,0.3-9,6c-5.5,5.7-6.2,10.7-6,11.5c0.3,1.8,4.3,2.5,4.9,2
	c0.6-0.5,1.2-3.3,4-7.6c2.8-4.3,7.9-7.1,7.9-7.8C-35,1235.5-35.8,1232.4-36.8,1232.2L-36.8,1232.2z M15.8,1233.2
	c-1.1-0.2-7.2,1.2-13.2,5.9c-6,4.6-8.9,13-8.7,13.5c0.2,0.7,3,2.6,4.1,1.7c1.1-0.9,2.1-2.9,7.9-9.8c5.8-6.9,10.3-5.4,11.1-6.2
	C17.7,1237.5,16.9,1233.3,15.8,1233.2L15.8,1233.2z"/>
</svg>
