<?xml version="1.0" encoding="utf-8"?>
<!-- Generator: Adobe Illustrator 18.0.0, SVG Export Plug-In . SVG Version: 6.00 Build 0)  -->
<!DOCTYPE svg PUBLIC "-//W3C//DTD SVG 1.1//EN" "http://www.w3.org/Graphics/SVG/1.1/DTD/svg11.dtd">
<svg version="1.1" id="Layer_1" xmlns:sketch="http://www.bohemiancoding.com/sketch/ns"
	 xmlns="http://www.w3.org/2000/svg" xmlns:xlink="http://www.w3.org/1999/xlink" x="0px" y="0px" width="200px" height="200px"
	 viewBox="-487 553 200 200" enable-background="new -487 553 200 200" xml:space="preserve">
<title></title>
<desc></desc>
<g id="miu">
	<g id="Artboard-1" transform="translate(-323.000000, -515.000000)">
		<g id="slice" transform="translate(215.000000, 119.000000)">
		</g>
		<path id="food-drink-wine-glass-glyph" d="M-126,1137.3c-7-27.6,7-44.3,7-44.3H-8.9c0,0,13.9,16.8,7,44.3
			c-7,27.6-50.1,30.7-52.1,51.1l-0.3,40.9c0,0,0,3.2,5.7,4.5c5.7,1.2,38.9,2.5,38.9,5.9c0,3.3-28.1,3.3-54.4,3.3s-54.4,0-54.4-3.3
			c0-3.3,33.2-4.7,38.9-5.9c5.7-1.2,5.7-4.5,5.7-4.5v-41.7C-77.1,1167.9-119.2,1164.5-126,1137.3z"/>
	</g>
</g>
</svg>
