<?xml version="1.0" encoding="utf-8"?>
<!-- Generator: Adobe Illustrator 18.0.0, SVG Export Plug-In . SVG Version: 6.00 Build 0)  -->
<!DOCTYPE svg PUBLIC "-//W3C//DTD SVG 1.1//EN" "http://www.w3.org/Graphics/SVG/1.1/DTD/svg11.dtd">
<svg version="1.1" id="Layer_1" xmlns="http://www.w3.org/2000/svg" xmlns:xlink="http://www.w3.org/1999/xlink" x="0px" y="0px"
	 width="800px" height="800px" viewBox="-76.2 -126.5 800 800" enable-background="new -76.2 -126.5 800 800" xml:space="preserve">
<g>
	<g>
		<path fill="#456166" d="M24.9,141.3c-4.2-28.8-0.5-56.4,14.2-81.7c17.3-29.8,42.6-47.4,78.1-47.2c35,0.3,59.7,17.9,76.8,47.3
			c14.3,24.6,17.5,51.4,14.6,79.3c-3.5,2.3-7.6,4.1-10.3,7c-45.8,49-136.1,44.2-170.3-6.2C27.8,139.6,25.9,140.7,24.9,141.3z
			 M93.1,56.7c0.1-1.9,0.2-3.8,0.3-5.8c-4.8-3.7-9.8-10.5-14.4-10.2c-4.9,0.3-12,6.5-13.4,11.4c-2.4,8.1,4,14.7,12.2,14
			C83.1,65.6,88,60,93.1,56.7z M62.6,89.1c3.3-4.9,6.6-7.6,6.7-10.4c0.1-2.2-4.3-6.7-5.9-6.3c-2.9,0.6-7,3.7-7.4,6.3
			C55.6,81,59.3,84.1,62.6,89.1z"/>
		<path fill="#3C5559" d="M24.9,141.3c1.1-0.5,2.9-1.6,3-1.5c34.3,50.4,124.6,55.2,170.3,6.2c2.8-3,6.9-4.7,10.3-7
			c-4,34.9-18,64.3-49.4,82.3c-10.4,6-23.1,8-34.8,11.8c-5.4,0-10.9,0-16.3,0.1C60.8,224.8,29.9,190.6,24.9,141.3z"/>
		<path fill="#DB6C26" d="M121.6,270.5c2,23.6-17.8,45.6-4.5,70.2C98.7,316.1,118.8,293.8,121.6,270.5z"/>
		<path fill="#DB6C26" d="M108,233.2c5.4,0,10.9,0,16.3-0.1c-0.7,2-1.9,3.9-1.9,5.9c0,5.4,0.6,10.8,0.9,16.2
			c-1.1,0.3-2.1,0.6-3.2,0.8C116.1,248.4,112.1,240.8,108,233.2z"/>
		<path fill="#F2F5F6" d="M93.1,56.7c-5.1,3.3-10,8.9-15.4,9.4c-8.2,0.7-14.5-5.8-12.2-14c1.4-5,8.6-11.2,13.4-11.4
			c4.6-0.3,9.6,6.5,14.4,10.2C93.3,52.8,93.2,54.7,93.1,56.7z"/>
		<path fill="#F0EDDA" d="M62.6,89.1c-3.3-4.9-7-8-6.6-10.4c0.4-2.6,4.5-5.7,7.4-6.3c1.6-0.3,5.9,4.1,5.9,6.3
			C69.2,81.5,66,84.2,62.6,89.1z"/>
	</g>
	<path fill="#F2F5F6" d="M610.8,63.7c2.2-2.2,4.3-4.5,6.5-6.7C617.5,61.6,615.3,63.7,610.8,63.7z"/>
	<g>
		<path fill="#EEEAD6" d="M174.5,393.9c2.3,0,4.7,0,9.6,0c-5.1,6.4-9,11.2-12.8,16c-9.1,11.3-17.1,23.9-27.7,33.7
			c-18,16.7-20.7,37-18.9,59.5c0.7,8.7,2.9,15.1,11.4,19.4c8.6,4.3,16.4,10,24.1,17.5c-26.7,0-53.4,0-83.7,0
			c5.3-3.2,7.2-4.9,9.4-5.7c26.9-9.8,36.3-29.2,30.7-56.5c-1.3-6.4-3.1-13.4-7-18.4c-14.4-19-29.7-37.3-44.7-55.9
			c-2.2-2.8-4.2-5.7-7-9.5c4.2,0,6.9,0,9.7,0c7.4,9.6,14.9,19.2,22.3,28.8c6.3,7.3,12.7,14.5,19,21.8l-0.1-0.1
			c0.9,1.6,1.9,3.1,2.8,4.7l-0.1-0.1c0.8,0.9,1.5,1.8,2.3,2.7l-0.1-0.2c2.3,2.9,4.6,5.7,7.1,8.8c10.7-12.8,20.2-24.3,29.7-35.7
			C158.4,414.5,166.4,404.2,174.5,393.9z"/>
		<path fill="#D3CEB5" d="M174.5,393.9c-8,10.3-16,20.6-24,30.9c-2.3-1-4.7-2-7-3.1c1.7-4.5,4.9-9.3,4.4-13.6
			c-0.3-2.8-5.9-6.6-9.5-7c-2.9-0.4-9,3.4-9.1,5.6c-0.3,4.9,2.3,10,3.8,14.9c-9.4,0.3-18.7,0.6-28.1,0.9c-5.1-9.7-10.1-19.3-15.2-29
			C117.9,393.7,146.2,393.8,174.5,393.9z"/>
		<path fill="#E96013" d="M89.7,393.6c5.1,9.7,10.1,19.3,15.1,29c3.8,7.3,8,14.5,11.2,22c0.7,1.7-1.5,4.7-2.4,7.1l0.1,0.2
			c-0.8-0.9-1.5-1.8-2.3-2.7l0.1,0.1c-0.9-1.6-1.9-3.1-2.8-4.7l0.1,0.1c-3.7-7.5-7.3-15-11-22.5c-5.1-9.6-10.2-19.2-15.2-28.8
			c-3.2-2.5-6.1-5.9-9.8-7.4c-12.5-5.1-25.4-9.6-38.1-14.3c0.3-1.1,0.5-2.1,0.8-3.2c2.2,0.2,4.6,0,6.7,0.6
			c13,4.1,26.3,7.7,38.9,12.9C84.9,383.6,86.9,389.6,89.7,393.6z"/>
		<path fill="#D3CEB5" d="M82.6,393.4c5.1,9.6,10.2,19.2,15.2,28.8c-2.7,0.2-5.4,0.5-8,0.7c-7.4-9.6-14.9-19.2-22.3-28.8
			C72.5,393.8,77.6,393.6,82.6,393.4z"/>
		<path fill="#F1CB06" d="M113.7,451.7c0.9-2.4,3.1-5.4,2.4-7.1c-3.3-7.5-7.4-14.7-11.2-22c9.4-0.3,18.7-0.6,28.1-0.9
			c3.5,0,7,0,10.5,0c2.3,1,4.7,2.1,7,3.1c-9.5,11.4-19,22.9-29.6,35.7C118.3,457.4,116,454.5,113.7,451.7z"/>
		<path fill="#F1CD12" d="M89.8,422.9c2.7-0.2,5.4-0.5,8-0.7c3.7,7.5,7.3,15,11,22.5C102.5,437.4,96.1,430.1,89.8,422.9z"/>
		<path fill="#F1CD12" d="M108.7,444.6c0.9,1.6,1.9,3.1,2.8,4.7C110.6,447.7,109.7,446.1,108.7,444.6z"/>
		<path fill="#F1CD12" d="M111.5,449.2c0.8,0.9,1.5,1.8,2.3,2.7C113.1,451,112.3,450.1,111.5,449.2z"/>
		<path fill="#D94C0C" d="M143.4,421.8c-3.5,0-7,0-10.5,0c-1.4-5-4-10-3.8-14.9c0.1-2.2,6.2-6,9.1-5.6c3.6,0.4,9.2,4.2,9.5,7
			C148.3,412.5,145,417.2,143.4,421.8z"/>
	</g>
	<g>
		<path fill="#D94C0C" d="M209.9,487.4c-1.4-0.5-2.7-1-4.1-1.4c2.3-4.9,4.5-9.7,6.8-14.6c3.5-1.5,7-2.9,10.6-4.4l1.1,0.1l1-0.4
			c4.9,2.8,9.8,5.5,14.8,8.3c1.1,3.7,2.2,7.5,3.3,11.2C232.2,486.7,221,487.1,209.9,487.4z"/>
		<path fill="#D94C0C" d="M290.7,340.9c-2.5,0-5,0-7.6,0.1c-1.7-0.1-3.3-0.3-5-0.4l0.6-0.5l-0.5-0.6c4.1-6,8.1-12,12.2-18
			c2.1-0.2,4.3-0.5,6.4-0.7c5.8,3.4,11.6,6.7,17.5,10.1c0.2,3,0.4,6.1,0.6,9.1c-1.3,0.4-2.7,0.7-4,1.1c-0.9,0-1.7,0-2.6-0.1
			c-1.7,0-3.3,0-5,0C299.1,340.9,294.9,340.9,290.7,340.9z"/>
		<path fill="#F1CB06" d="M224.9,376.4c-0.2-3.2-0.4-6.4-0.6-9.7c0.3-1.6,0.7-3.3,1-4.9c16.3-0.1,41.4-0.1,57.7-0.3
			c-0.3,5-0.5,10-0.8,15C266,376.5,241.1,376.4,224.9,376.4z"/>
		<path fill="#F2F5F6" d="M290.7,340.9c4.2,0,8.5,0,12.7,0C299.1,340.9,294.9,340.9,290.7,340.9z"/>
		<path fill="#F2F5F6" d="M278.1,340.6c1.7,0.1,3.3,0.3,5,0.4C281.4,340.9,279.8,340.7,278.1,340.6z"/>
		<path fill="#F2F5F6" d="M308.3,340.9c0.9,0,1.7,0,2.6,0.1C310,341,309.2,340.9,308.3,340.9z"/>
		<path fill="#F1CD12" d="M319.5,486.2c-25.4,0-50.8,0.1-76.2,0.1c-1.1-3.7-2.2-7.5-3.3-11.2c4.8-0.9,9.6-2.6,14.5-2.6
			c23.5-0.3,47.1-0.2,70.6-0.2C323.2,476.9,321.4,481.6,319.5,486.2z"/>
		<path fill="#E79E02" d="M280.6,376.4c0,7.5,0,14.9,0,22.4c-16.2-0.6-39.5-1.2-55.7-1.9c0-6.8,0-13.7,0-20.5
			C241.1,376.4,264.4,376.4,280.6,376.4z"/>
		<path fill="#E79E02" d="M282.5,414.3c0,6.8,0,13.5,0,20.3c-16.2,0-41.4,0-57.6,0c0-6.8,0-13.6,0-20.4
			C241.1,414.2,266.3,414.2,282.5,414.3z"/>
		<path fill="#F1CA03" d="M224.9,434.6c16.2,0,41.4,0,57.6,0c0,5.9,0.1,11.7,0.1,17.6c-16.2,0-41.6,0-57.8-0.1
			C224.9,446.2,224.9,440.4,224.9,434.6z"/>
		<path fill="#F1CA03" d="M280.6,414.3c-16.2,0-39.5,0-55.7-0.1c0-5.8,0-11.5,0-17.3c16.2,0.6,39.5,1.2,55.7,1.9
			C280.6,403.9,280.6,409.1,280.6,414.3z"/>
		<g>
			<path fill="#EFC909" d="M296.9,269.1c0.1-2.6,0.1-5.3,0.2-7.9l0.8-0.3V260c0.5-0.3,0.6-0.8,0.3-1.3c41.8-0.1,83.7-0.2,125.5-0.4
				c0.9,0.7,6.7,1.3,7.6,2c-0.3,4.2-0.6,8.4-0.9,12.5c-42.4-0.2-89.8-0.5-132.2-0.7C297.8,271.2,297.3,270.2,296.9,269.1z"/>
			<path fill="#E79E02" d="M422.1,293.5c-41.3,0.1-82.5,0.2-123.8,0.3c-0.5-1.2-1-2.5-1.5-3.7c0-6.1-0.1-12.2-0.1-18.2l0.7,0.5
				l0.8-0.2c42.4,0.2,89.8,0.4,132.2,0.6c0,5.3,0,10.6,0,15.8C429.3,290.3,423.3,291.9,422.1,293.5z"/>
			<path fill="#F1CD12" d="M470,331.2c2.2,0,4.4,0.1,6.6,0.1c-0.2,2.9,30.3,8.5,30.1,11.4c-2-0.2-34.8,3.8-36.8,3.6
				C469.9,343.6,469.9,334,470,331.2z"/>
			<path fill="#F1CA03" d="M426.6,346.4c-1.6-2.8-3.1-12.4-4.7-15.2c16,0,32.1,0,48.1,0c0,2.8-0.1,12.3-0.1,15.1
				C455.4,346.3,441,346.3,426.6,346.4z"/>
			<path fill="#F1CD12" d="M412.4,331.3c3.2,0,6.3-0.1,9.5-0.1c1.6,2.8,6.9,12.2,8.5,15.1c-4.9,0.2-13.6-6.3-18.5-6.1
				C412.1,337.2,412.2,334.3,412.4,331.3z"/>
			<path fill="#E79E02" d="M566.9,416.6c0,5.2,0,10.4,0,15.6c-0.4,0.8-0.8,1.6-1.3,2.5c-90.6,0-181.2-0.1-271.8-0.1
				c0-6.7,0-13.5,0-20.2c56.9-0.1,126-0.3,182.8-0.4c1.7,3.5-8.7,7.1-7,10.6c11.3,5.9,14.5-0.7,15.9-10.2c26.7,0,53.4-0.1,80.1-0.1
				C566.1,415,566.5,415.8,566.9,416.6z"/>
			<path fill="#F1CA03" d="M293.8,396.8c56.9,0.1,125.9,0.2,182.8,0.3c0,5.6,0,11.3,0,16.9c-56.9,0.1-125.9,0.2-182.7,0.3
				C293.8,408.4,293.8,402.6,293.8,396.8z"/>
			<path fill="#E79E02" d="M293.8,396.8c0-6.7,0-13.5,0-20.2c56.9-0.1,123.3-0.2,180.2-0.3c0,6.9,3.8,13.6,3.8,20.5
				C420.9,396.7,350.7,396.9,293.8,396.8z"/>
			<path fill="#F1CB06" d="M472.8,376.6c-56.9,0.1-122.3-0.1-179.1,0c0-4.5,0-9.1,0-13.6c1.6-0.6,2.7-1.4,3.9-1.4
				c53.7-0.1,107.3-0.2,161-0.1c2.2,0,12.9,1.8,15.1,2.6C473.5,368.3,473.2,372.4,472.8,376.6z"/>
			<path fill="#E79E02" d="M565.9,452c0.3,4.2,0.7,8.5,1,12.7c-0.5,0.7-0.7,1.5-0.6,2.4c-5.1,2.7-10.2,5.4-15.2,8
				c-4.8-0.9-9.6-2.6-14.5-2.6c-23.5-0.3-46.9-0.1-70.4-0.2c-10.4-7-20.1-6.6-28.9,2.8c-13.1-0.9-26.1-2.6-39.2-2.6
				c-14.8,0-29.5,1.5-44.3,2.4c-8.8-8.9-18.4-9.7-28.7-2.7c-23.5,0-47.1-0.1-70.6,0.2c-4.8,0.1-9.6,1.7-14.5,2.6
				c-4.9-2.8-9.8-5.5-14.8-8.3c-0.3-0.8-0.6-1.6-0.9-2.4c0-1.5-0.1-3-0.1-4.5c0-1,0-2.1,0-3.1c0.2-1.6,0.4-3.2,0.7-4.9
				c16.2,0,39.5-0.1,55.7,0c1.4,2.7-4.1,5.5-2.7,8.2c9.7,5.8,13.5,0.1,15.9-8.2C384.5,452,475.2,452,565.9,452z"/>
			<path fill="#EFEAD7" d="M220.1,361.2c-1.6-5.1-5.5-11-4.1-15.1c1-3.1,8.7-5.4,13.5-5.7c16.2-0.9,32.5-0.7,48.7-1l0.5,0.6
				l-0.6,0.5c1.7,0.1,3.3,0.3,5,0.4c2.5,0,5,0,7.6-0.1c4.2,0,8.5,0,12.7,0c1.7,0,3.3,0,5,0c0.9,0,1.7,0,2.6,0.1
				c1.3-0.4,2.7-0.7,4-1.1c0.3,0.4,0.7,0.7,1.1,1.1c20.2,0,40.3,0,60.5,0c1.2-0.3,2.4-0.6,3.6-0.8c0.6,0.1,1.2,0.3,1.6,0.8
				c2.5,0,5,0,7.6-0.1c5.9,0,11.7,0,17.6,0c13.3,0.9,26.5,2.5,39.8,2.5c14.5,0,29.1-1.6,43.6-2.5c6.7-0.1,13.4-0.2,20-0.3
				c1.3,0.1,2.7,0.2,4,0.3l-1,0.3c0,0-0.4-1-0.3-1c4.8-0.2,9.6-0.4,14.3-0.5c13.7,0,27.4,0,41.1,0.1c10.7,6,10.8,13.2,2.4,21.3
				c-0.7,0-1.3,0.2-2,0.6c-0.8-0.1-1.6-0.1-2.4,0.1c-26.8,0-53.5,0-80.8,0c0,5.8,0,10.3,0,14.9c0,6.8,0,13.5,0,20.3
				c0,5.8,0,11.7,0,17.5c-1.4,9.5-4.7,16.1-15.9,10.2c-3.7-19.9,0.1-38.5-0.2-57.8c0-1-2.8-1.9-4.3-2.9c-2.2-0.8-4.4-2.3-6.6-2.3
				c-53.6-0.1-107.3,0-161,0.1c-1.1,0-2.3,0.8-3.9,1.4c0,4.6,0,9.1,0,13.6c0,6.7,0,13.5,0,20.2c0,5.8,0,11.7,0,17.5
				c0,6.7,0,13.5,0,20.2c0,5.8,0,11.7,0,17.5c-2.4,8.3-6.2,14.1-15.9,8.2c-2.9-28.3,0.3-56.7,0-85c0-4.6-2.3-9.3-3.6-13.9
				c-16.3,0.1-32.6,0.3-48.9,0.4c-0.8-0.2-1.6-0.2-2.4-0.1C222,361.5,221.1,361.4,220.1,361.2z"/>
			<path fill="#D3CEB5" d="M587,508c-3.4,3.1-8.9,5.8-9.7,9.5c-3.4,15.5-15,12.8-25.5,12.8c-104.9,0-209.9-0.1-314.8,0.1
				c-10.5,0-19.7,0.5-23.3-12.5c-1.1-3.8-6.2-6.5-9.5-9.8c5-0.3,10.1-0.8,15.1-0.8c113.4,0,226.8,0.1,340.2,0.1
				C568.6,507.6,577.8,507.9,587,508z"/>
			<path fill="#EEEAD6" d="M587,508c-9.2-0.2-18.4-0.5-27.6-0.5c-113.4-0.1-226.8-0.1-340.2-0.1c-5,0-10.1,0.5-15.1,0.8
				c-8.6-2.5-17.6-4.2-25.7-7.9c-3.1-1.4-4.2-7.3-7.8-14.3c13.7,0,24.4,0,35.2,0c1.4,0.5,2.7,1,4.1,1.4c6.1,0.9,12.2,2.5,18.4,2.5
				c115.6,0.2,231.1,0.2,346.7,0.1c2.9,0,5.7-1.8,8.6-2.8c0.6-0.5,1.3-1,1.9-1.6c9.8,0.5,19.6,1.1,29.5,1.6
				C613.8,502.5,609.5,505.5,587,508z"/>
			<path fill="#EEE7D1" d="M369.5,237.5c3.4,0,6.9,0,10.3,0c8.8,0.1,17.7,0.3,26.5,0.4c1.8-0.1,3.6-0.1,5.4-0.2
				c3.1,0,6.2-0.1,9.3-0.1c12.5,0,25.1,0,37.6,0c10.3,0.1,20.7-0.5,30.9,0.7c5,0.6,11.3,3.7,13.6,7.7c1.4,2.5-3.5,8.6-5.5,13.1
				c-1.5,0.4-3.1,0.8-4.6,1.3c-15.7,0-31.4,0-47.5,0c0,5.2,0,8.9,0,12.6c-0.3,4.2-0.5,16.1-0.8,20.3c-5,3.4-12.2,5.3-17.2,8.7
				c-1-11.8,0.1-29.7-0.9-41.5c-0.9-0.7-1.8-1.3-2.7-2c-2.3-1.1-0.8,0.7-3.1,0.7c-36.2-0.2-67.3,0.9-103.5,1.1
				c-3.4,0-15.5-2.6-18.9-1.5c0.2,0.5,0.1,1-0.3,1.3c-0.6-0.3-1.1-0.4-1.8-0.3c-0.9-0.2-1.8-0.4-2.6-0.6c-2-4.9-6.3-10.3-5.2-14.4
				c0.8-3.2,8.1-6.1,12.8-6.6c10.2-1.1,20.6-0.6,30.9-0.7C344.5,237.5,357,237.5,369.5,237.5z"/>
			<path fill="#E79F11" d="M396.8,72.8c5.4,11.2,12.7,22,15.6,33.9c1.7,7.2-1.5,17.7-6.3,23.5c-3.1,3.7-14.2,3.6-20.1,1.2
				c-8.7-3.6-10.5-12.9-7.4-21.6c4.4-12.5,9.8-24.7,14.7-37.1C394.5,72.6,395.7,72.7,396.8,72.8z M398.2,93.6
				c-2.1,0.4-4.2,0.7-6.3,1.1c-2.5,7.3-6.5,14.6-6.9,22.1c-0.2,3.8,5.7,10.8,9.4,11.1c3.7,0.4,11.7-6.1,11.4-8.8
				C404.9,110.4,400.9,102,398.2,93.6z"/>
			<path fill="#D94C0C" d="M585.5,485.7c-0.6,0.5-1.3,1-1.9,1.6c-11.9-0.3-23.7-0.6-35.6-0.9c1-3.7,2.1-7.5,3.1-11.2
				c5.1-2.7,10.2-5.4,15.2-8l1,0.1l1-0.2c1.4,0.2,2.9,0.5,4.3,0.7C576.9,473.8,581.2,479.7,585.5,485.7z"/>
			<path fill="#D94C0C" d="M512.8,340.2l0.4,1c0,0,1-0.3,1-0.4c-1.3-0.1-2.7-0.2-4-0.2c-6.7,0.1-13.4,0.2-20,0.3
				c-4.8-0.3-9.5,2.7-14.3,2.4c0.2-2.9,0.5-9.1,0.7-12c5.4-3.5,10.8-7.1,16.2-10.6c2.4,0.4,4.7,0.7,7.1,1.1l-0.4-0.7
				c1.1,0.7,2.2,1.4,3.3,2c2.2,1.9,4.3,3.8,6.5,5.6c1.1,1.8,2.2,3.6,3.2,5.4l-0.3-0.3c0.3,2,0.5,3.9,0.8,5.9L512.8,340.2z"/>
			<path fill="#D94C0C" d="M458.6,237.5c-12.5,0-25.1,0-37.6,0c-0.1-0.8-0.1-1.7-0.2-2.5c3.7-9.6,9.6-16.8,20.9-15.5
				C452,220.6,457.8,227,458.6,237.5z"/>
			<path fill="#D94C0C" d="M369.5,237.5c-12.5,0-25,0-37.5,0c1.4-11.1,7.4-18.1,18.8-18.1C362,219.5,368.2,226.3,369.5,237.5z"/>
			<path fill="#9FC851" d="M380.1,207.5c0-4.9-0.1-9.8-0.1-14.8c10.2-4.3,20.4-8.7,30.6-13c0,5,0,9.9,0,14.9
				C400.5,198.9,390.3,203.2,380.1,207.5z"/>
			<path fill="#9FC851" d="M380.1,234.3c0-5.3,0-10.7,0.1-16c10.2-3.8,20.4-7.7,30.6-11.5c0.4,1.9,0.7,3.8,1.1,5.6
				c0,2.4-0.1,4.9-0.1,7.3l-1-0.1c-0.6,0.1-1.1,0.3-1.6,0.5C399.4,224.8,389.7,229.6,380.1,234.3z"/>
			<path fill="#9FC851" d="M380.2,180.6c0-4.5,0-9,0-13.5c9.8-4.2,19.6-8.4,29.3-12.7h0.7h0.7c-0.1,4.9-0.1,9.8-0.2,14.6
				C400.5,173,390.3,176.8,380.2,180.6z"/>
			<path fill="#CCF184" d="M380.2,180.6c10.2-3.8,20.4-7.6,30.5-11.5c0,3.5,0,7,0,10.5c-10.2,4.3-20.4,8.7-30.6,13
				C380.1,188.7,380.1,184.6,380.2,180.6z"/>
			<path fill="#CCF184" d="M410.7,206.8c-10.2,3.8-20.4,7.7-30.6,11.5c0-3.6,0-7.2,0-10.8c10.2-4.3,20.4-8.6,30.5-12.9
				C410.7,198.6,410.7,202.7,410.7,206.8z"/>
			<path fill="#CCF184" d="M409.5,154.5c-9.8,4.2-19.6,8.4-29.3,12.7c0-4-0.1-8-0.1-12.1c9.7-3.9,19.4-7.7,29-11.6
				c0.9,1.1,1.8,2.1,2.6,3.2c-0.4,0.3-0.7,0.7-1.1,1C410.3,150,409.9,152.2,409.5,154.5z"/>
			<path fill="#CCF184" d="M380.1,234.3c9.7-4.7,19.3-9.5,29-14.2c-0.9,5.9-1.9,11.8-2.8,17.7c-8.8-0.1-17.7-0.2-26.5-0.4
				C379.9,236.4,380,235.4,380.1,234.3z"/>
			<path fill="#9FC851" d="M409.1,143.5c-9.7,3.9-19.4,7.7-29,11.6c-2.4-10.4,1.8-14.6,12.2-13.3
				C397.9,142.4,403.5,142.9,409.1,143.5z"/>
			<path fill="#5FC0CB" d="M512.4,334.1c-1.1-1.8-2.2-3.6-3.2-5.4C510.2,330.6,511.3,332.4,512.4,334.1z"/>
			<path fill="#4FC6E0" d="M502.6,323.1c-1.1-0.7-2.2-1.3-3.3-2C500.5,321.8,501.6,322.5,502.6,323.1z"/>
			<path fill="#F1CA03" d="M293.8,434.5c90.6,0,181.2,0.1,271.8,0.1c0.4,1.5,0.9,3,1.3,4.5c0,2.7,0,5.5,0,8.2c-0.5,0.7-0.5,1.4,0,2
				c-0.4,0.9-0.7,1.8-1.1,2.7c-90.7,0-181.4,0-272,0C293.8,446.2,293.8,440.3,293.8,434.5z"/>
			<path fill="#E79E02" d="M565.9,376.5c0.4,5.9,0.7,11.8,1.1,17.7c-0.4,0.9-0.8,1.8-1.2,2.7c-26.7,0-53.4-0.1-80.1-0.1
				c0-6.8,0-13.5,0-20.3C512.3,376.5,539.1,376.5,565.9,376.5z"/>
			<path fill="#F1CA03" d="M485.6,396.8c26.7,0,53.4,0.1,80.1,0.1c0.4,0.7,0.8,1.3,1.2,1.9c0,4.4,0,8.9,0,13.3
				c-0.5,0.7-0.9,1.4-1.2,2.1c-26.7,0-53.4,0.1-80.1,0.1C485.6,408.5,485.6,402.6,485.6,396.8z"/>
			<path fill="#F1CB06" d="M565.9,376.5c-26.8,0-53.5,0-80.3,0c0-4.5,0-9.1,0-14.9c27.3,0,54,0,80.8,0c0.2,4.9,0.4,9.8,0.6,14.7
				L565.9,376.5z"/>
			<path fill="#F1CD12" d="M314.9,339.9c-0.2-3-0.4-6.1-0.5-9.1c21.6-0.8,43.2-1.6,64.8-2.4c0.3,3.9,0.6,7.8,0.9,11.7
				c-1.2,0.3-2.4,0.6-3.6,0.8c-20.2,0-40.3,0-60.5,0C315.6,340.6,315.3,340.3,314.9,339.9z"/>
			<path fill="#D94C0C" d="M380,340.1c-0.3-3.9-0.6-7.8-0.9-11.7c15.7-10.5,21.4-10.1,33.3,2.8c-0.2,3-0.3,5.9-0.5,8.9
				c-1.7,0.2-3.4,0.5-5.1,0.7c-5.9,0-11.7,0-17.6,0c-2.5,0-5,0-7.6,0.1C381.2,340.5,380.7,340.2,380,340.1z"/>
			<path fill="#F2F5F6" d="M316,341c20.2,0,40.3,0,60.5,0C356.3,341,336.1,341,316,341z"/>
			<path fill="#5FC0CB" d="M512.9,339.7c4.7,0,9.5-0.1,14.2-0.1c-4.8,0.2-9.5,0.4-14.3,0.5C512.8,340.2,512.9,339.7,512.9,339.7z"/>
			<path fill="#F2F5F6" d="M381.6,341c2.5,0,5,0,7.6-0.1C386.6,340.9,384.1,341,381.6,341z"/>
			<path fill="#F2F5F6" d="M510.2,340.6c1.3,0.1,2.7,0.2,4,0.2C512.8,340.8,511.5,340.7,510.2,340.6z"/>
			<path fill="#F2F5F6" d="M209.9,487.4c11.1-0.4,22.3-0.7,33.4-1.1c25.4,0,50.8-0.1,76.2-0.1c12.7,0,25.4,0,38.1,0
				c25.5,0,50.9,0,76.4,0.1c12.5,0,25,0,37.5,0c25.5,0,51,0.1,76.4,0.1c11.9,0.3,23.7,0.6,35.6,0.9c-2.9,1-5.7,2.8-8.6,2.8
				c-115.6,0.1-231.1,0.1-346.7-0.1C222.1,489.9,216,488.3,209.9,487.4z"/>
			<path fill="#E79E02" d="M492.2,272.9c0,6.8,0,13.6,0,20.4c-15.8,0-31.7,0-47.5,0c-0.1-2.6-0.2-5.1-0.4-7.7
				c0.3-4.2,0.7-8.5,1-12.7C461,272.9,476.6,272.9,492.2,272.9z"/>
			<path fill="#F1CA03" d="M492.2,272.9c-15.6,0-31.2,0-46.8,0c0-3.7,0-7.4,0-12.6c16.1,0,31.8,0,47.5,0
				C492.6,264.5,492.4,268.7,492.2,272.9z"/>
			<path fill="#A9C771" d="M410.7,219.6c0.3,6,0.7,12,1,18.1c-1.8,0.1-3.6,0.1-5.4,0.2c0.9-5.9,1.9-11.8,2.8-17.7
				C409.6,219.9,410.1,219.7,410.7,219.6z"/>
			<path fill="#F1CB06" d="M398.2,93.6c2.8,8.5,6.7,16.8,7.7,25.5c0.3,2.8-7.7,9.2-11.4,8.8c-3.7-0.4-9.6-7.3-9.4-11.1
				c0.4-7.5,4.4-14.7,6.9-22.1C394,94.3,396.1,93.9,398.2,93.6z"/>
			<path fill="#F1CD12" d="M547.9,486.3c-25.5,0-51-0.1-76.4-0.1c-1.8-4.6-3.6-9.3-5.4-13.9c23.5,0,46.9-0.1,70.4,0.2
				c4.8,0.1,9.6,1.7,14.5,2.6C550,478.9,549,482.6,547.9,486.3z"/>
			<path fill="#E79E02" d="M412.4,331.3c-11.8-12.9-17.6-13.4-33.3-2.8c-21.6,0.8-43.2,1.6-64.8,2.4c-5.8-3.4-11.6-6.7-17.5-10.1
				c0.2-3.4,0.5-6.7,0.7-10.1c64.9,0,129.7,0,194.6-0.1c0.2,3.4,0.4,6.7,0.5,10.1c-5.4,3.5-10.8,7.1-16.2,10.6
				c-2.2,0-4.4-0.1-6.6-0.1c-16,0-32.1,0-48.1,0C418.7,331.2,415.6,331.3,412.4,331.3z"/>
			<path fill="#A9C771" d="M410.6,147.7c0.1,2.3,0.1,4.5,0.2,6.8h-0.7h-0.7C409.9,152.2,410.3,150,410.6,147.7z"/>
			<path fill="#F1CA03" d="M492.2,310.6c-64.9,0-129.7,0-194.6,0.1c-0.2-4.6-0.5-9.2-0.7-13.8c0.5-1,1-2,1.5-3.1
				c41.3-0.1,82.5-0.2,123.8-0.3c2.5,1.5,5,3.1,7.4,4.6c5-1.6,10.1-3.3,15.1-4.9c15.8,0,31.7,0,47.5,0
				C492.2,299,492.2,304.8,492.2,310.6z"/>
			<path fill="#F1CD12" d="M434,486.3c-25.5,0-50.9,0-76.4-0.1c-1.3-3.7-2.5-7.5-3.8-11.2c14.8-0.9,29.5-2.4,44.3-2.4
				c13.1,0,26.1,1.6,39.2,2.6C436.1,478.8,435.1,482.6,434,486.3z"/>
			<path fill="#D94C0C" d="M353.8,475c1.3,3.7,2.5,7.5,3.8,11.2c-12.7,0-25.4,0-38.1,0c1.9-4.6,3.7-9.3,5.6-13.9
				C335.4,465.3,345,466.1,353.8,475z"/>
			<path fill="#D94C0C" d="M434,486.3c1.1-3.7,2.2-7.4,3.3-11.1c8.8-9.3,18.5-9.7,28.9-2.8c1.8,4.6,3.6,9.3,5.4,13.9
				C459,486.2,446.5,486.3,434,486.3z"/>
			<path fill="#EFC909" d="M422.1,293.5c1.2-1.6,2.3-3.2,3.5-4.8c1.2,2.4,2.4,4.8,3.6,7.2c0.1,0.7,0.2,1.5,0.4,2.2
				C427.1,296.6,424.6,295.1,422.1,293.5z"/>
		</g>
	</g>
</g>
</svg>
