<?xml version="1.0" encoding="utf-8"?>
<!-- Generator: Adobe Illustrator 18.0.0, SVG Export Plug-In . SVG Version: 6.00 Build 0)  -->
<!DOCTYPE svg PUBLIC "-//W3C//DTD SVG 1.1//EN" "http://www.w3.org/Graphics/SVG/1.1/DTD/svg11.dtd">
<svg version="1.1" id="Layer_1" xmlns:sketch="http://www.bohemiancoding.com/sketch/ns"
	 xmlns="http://www.w3.org/2000/svg" xmlns:xlink="http://www.w3.org/1999/xlink" x="0px" y="0px" width="200px" height="200px"
	 viewBox="-487 553 200 200" enable-background="new -487 553 200 200" xml:space="preserve">
<title></title>
<desc></desc>
<g id="miu">
	<g id="Artboard-1" transform="translate(-827.000000, -515.000000)">
		<g id="slice" transform="translate(215.000000, 119.000000)">
		</g>
		<path id="food-birthday-cake-party-candle-glyph" d="M405.1,1121v25.9h5.8V1121H405.1L405.1,1121z M437.1,1121v25.9h5.8V1121
			H437.1L437.1,1121z M469.1,1121v25.9h5.8V1121H469.1L469.1,1121z M408,1117.7c3,0,4.8-3.6,0-9.7
			C403.3,1114.2,405.1,1117.7,408,1117.7L408,1117.7z M440,1117.7c3,0,4.8-3.6,0-9.7C435.3,1114.2,437.1,1117.7,440,1117.7
			L440,1117.7z M472,1117.7c3,0,4.8-3.6,0-9.7C467.3,1114.2,469.1,1117.7,472,1117.7L472,1117.7z M382.6,1182.1
			c3.4,2.6,7.7,5.1,11.5,5.1c8,0,12.6-11.1,21.3-11.1s14.6,11.1,23,11.1c8.4,0,14.8-11.1,23-11.1c8.1,0,15,11.1,23,11.1
			c4.1,0,9.2-2.9,13.1-5.8v-18.3c0-6.5-3.3-6.5-3.3-6.5H385.8c0,0-3.3,0-3.3,6.5V1182.1z M376,1179.4v33.8
			c0,14.8,13.1,14.8,13.1,14.8h101.7c0,0,13.1,0,13.1-14.8v-33.8v-16.2c0-13-9.8-13-9.8-13H385.8c0,0-9.8,0-9.8,13V1179.4z"/>
	</g>
</g>
</svg>
