<?xml version="1.0" encoding="utf-8"?>
<!-- Generator: Adobe Illustrator 18.0.0, SVG Export Plug-In . SVG Version: 6.00 Build 0)  -->
<!DOCTYPE svg PUBLIC "-//W3C//DTD SVG 1.1//EN" "http://www.w3.org/Graphics/SVG/1.1/DTD/svg11.dtd">
<svg version="1.1" id="Layer_1" xmlns="http://www.w3.org/2000/svg" xmlns:xlink="http://www.w3.org/1999/xlink" x="0px" y="0px"
	 width="200px" height="200px" viewBox="-478 565 200 200" enable-background="new -478 565 200 200" xml:space="preserve">
<g>
	<path d="M-378,707.8c-35.3,0-64-28.7-64-64c0-21.7,15.9-51.8,45.7-51.8c9.7,0,15.3,3.9,18.3,7.1c3-3.1,8.6-7.1,18.3-7.1
		c29.8,0,45.7,30.1,45.7,51.8C-314,679-342.7,707.8-378,707.8z M-396.3,598c-25.8,0-39.6,26.5-39.6,45.7c0,31.9,26,57.9,57.9,57.9
		s57.9-26,57.9-57.9c0-19.2-13.8-45.7-39.6-45.7c-11.5,0-15.2,6.7-15.6,7.5c-1,2.1-4.4,2.1-5.5,0C-381.1,604.7-384.8,598-396.3,598z
		"/>
	<path d="M-378,707.8c-14.6,0-25.7-10.8-30.4-29.7c-3-12-6.2-30.2-6.2-40.4c0-20.2,16.4-36.6,36.6-36.6s36.6,16.4,36.6,36.6
		c0,10.1-3.2,28.4-6.2,40.4C-352.3,696.9-363.4,707.8-378,707.8z M-378,607.2c-16.8,0-30.5,13.7-30.5,30.5c0,9.7,3.1,27.2,6,38.9
		c2.3,9.4,8.6,25.1,24.5,25.1s22.1-15.7,24.5-25.1c2.9-11.6,6-29.2,6-38.9C-347.5,620.9-361.2,607.2-378,607.2z"/>
	<path d="M-396.3,640.7c-0.8,0-1.6-0.3-2.2-0.9c-1.2-1.2-1.2-3.1,0-4.3c4.1-4.1,11.9-7.7,16.5-3c1.2,1.2,1.2,3.1,0,4.3
		c-1.2,1.2-3.1,1.2-4.3,0c-0.7-0.7-2.3-0.2-3,0c-1.7,0.6-3.6,1.8-4.9,3.1C-394.7,640.4-395.5,640.7-396.3,640.7z"/>
	<path d="M-387.1,646.8c-1.7,0-3.1-1.4-3.1-3c0-1.7,1.3-3,3-3h0c1.7,0,3,1.4,3,3C-384,645.4-385.4,646.8-387.1,646.8z"/>
	<path d="M-359.7,640.7c-0.8,0-1.6-0.3-2.2-0.9c-1.3-1.3-3.2-2.5-4.9-3.1c-0.7-0.2-2.3-0.7-3,0c-1.2,1.2-3.1,1.2-4.3,0
		c-1.2-1.2-1.2-3.1,0-4.3c4.6-4.6,12.4-1,16.5,3c1.2,1.2,1.2,3.1,0,4.3C-358.2,640.4-358.9,640.7-359.7,640.7z"/>
	<path d="M-368.8,646.8c-1.7,0-3.1-1.4-3.1-3c0-1.7,1.3-3,3-3h0c1.7,0,3,1.4,3,3C-365.7,645.4-367.1,646.8-368.8,646.8z"/>
	<path d="M-378,674.2c-6.7,0-12.2-5.5-12.2-12.2c0-6.7,5.5-12.2,12.2-12.2s12.2,5.5,12.2,12.2C-365.8,668.8-371.3,674.2-378,674.2z
		 M-378,655.9c-3.4,0-6.1,2.7-6.1,6.1c0,3.4,2.7,6.1,6.1,6.1s6.1-2.7,6.1-6.1C-371.9,658.7-374.6,655.9-378,655.9z"/>
	<path d="M-365.8,683.4h-24.4c-1.7,0-3-1.4-3-3c0-1.7,1.4-3,3-3h24.4c1.7,0,3,1.4,3,3C-362.8,682-364.1,683.4-365.8,683.4z"/>
	<path d="M-378,695.6c-5.7,0-7.8-5.8-9.1-9.7c-0.3-0.9-0.7-2.1-1.1-2.7c-1.2-0.4-2-1.5-2-2.9c0-1.7,1.4-3,3-3c3.4,0,4.6,3.5,5.7,6.6
		c0.8,2.2,2,5.6,3.4,5.6s2.6-3.4,3.4-5.6c1.1-3.1,2.3-6.6,5.7-6.6c1.7,0,3,1.4,3,3c0,1.3-0.8,2.4-2,2.9c-0.3,0.6-0.8,1.8-1.1,2.7
		C-370.2,689.7-372.3,695.6-378,695.6z"/>
	<path d="M-378,723c-21.1,0-45.7-4-45.7-15.2c0-5.4,5.9-9.9,17-12.8c0.7-0.2,1.5-0.1,2.2,0.2c8.3,4.3,17.3,6.5,26.6,6.5
		c9.3,0,18.3-2.2,26.6-6.5c0.7-0.3,1.5-0.4,2.2-0.2c11.1,3,17,7.4,17,12.8C-332.3,719-356.9,723-378,723z M-406.3,701.1
		c-8.3,2.4-11.3,5.2-11.3,6.6c0,3.3,13.2,9.1,39.6,9.1s39.6-5.9,39.6-9.1c0-1.4-3-4.3-11.3-6.6c-8.9,4.4-18.4,6.6-28.3,6.6
		S-397.4,705.5-406.3,701.1z"/>
	<path d="M-376.4,738.2c-0.4,0-0.9,0-1.3,0c-52.2,0-58.2-8.7-58.2-15.2c0-14.9,8.9-21.5,23.3-27.2c1.5-0.6,3.3,0.1,4,1.7
		c0.6,1.6-0.1,3.3-1.7,4c-14.7,5.9-19.4,11.1-19.4,21.6c0,3.4,10.9,9.1,51.8,9.1h0.3c26.1,0.1,45.9-2.9,50.7-7.6
		c0.8-0.8,0.8-1.3,0.8-1.5c0-10.4-4.7-15.7-19.4-21.5c-1.6-0.6-2.3-2.4-1.7-4c0.6-1.6,2.4-2.3,4-1.7c14.4,5.7,23.3,12.3,23.3,27.2
		c0,2.1-0.9,4.1-2.6,5.8C-331.1,737.2-362.1,738.2-376.4,738.2z"/>
	<path d="M-378,738.2c-1,0-2-0.5-2.6-1.5l-7.5-12.5l-15.6,10.4c-0.7,0.5-1.5,0.6-2.4,0.4c-0.8-0.2-1.5-0.7-2-1.4l-7.6-12.6
		l-12.6,7.6c-1.5,0.9-3.3,0.4-4.2-1c-0.9-1.4-0.4-3.3,1-4.2l15.2-9.1c1.4-0.9,3.3-0.4,4.2,1l7.5,12.5l15.6-10.4
		c0.7-0.5,1.5-0.6,2.4-0.4c0.8,0.2,1.5,0.7,1.9,1.4l9.1,15.2c0.9,1.4,0.4,3.3-1,4.2C-376.9,738.1-377.5,738.2-378,738.2z"/>
	<path d="M-378,738.2c-0.5,0-1.1-0.1-1.6-0.4c-1.4-0.9-1.9-2.7-1-4.2l9.1-15.2c0.4-0.7,1.1-1.2,1.9-1.4c0.8-0.2,1.7,0,2.4,0.4
		l15.6,10.4l7.5-12.5c0.9-1.4,2.7-1.9,4.2-1l15.2,9.1c1.4,0.9,1.9,2.7,1,4.2c-0.9,1.4-2.7,1.9-4.2,1l-12.6-7.6l-7.6,12.6
		c-0.4,0.7-1.1,1.2-2,1.4c-0.8,0.2-1.7,0-2.4-0.4l-15.6-10.4l-7.5,12.5C-376,737.7-377,738.2-378,738.2z"/>
</g>
</svg>
