<?xml version="1.0" encoding="utf-8"?>
<!-- Generator: Adobe Illustrator 18.0.0, SVG Export Plug-In . SVG Version: 6.00 Build 0)  -->
<!DOCTYPE svg PUBLIC "-//W3C//DTD SVG 1.1//EN" "http://www.w3.org/Graphics/SVG/1.1/DTD/svg11.dtd">
<svg version="1.1" id="Layer_2" xmlns="http://www.w3.org/2000/svg" xmlns:xlink="http://www.w3.org/1999/xlink" x="0px" y="0px"
	 width="800px" height="800px" viewBox="0 -76 800 800" enable-background="new 0 -76 800 800" xml:space="preserve">
<g>
	<g>
		<rect x="205.8" y="21" fill="#FFFFFF" width="584" height="377.7"/>
		<line fill="none" stroke="#000000" stroke-width="6" stroke-miterlimit="10" x1="235.8" y1="345.5" x2="756.6" y2="345.5"/>
		<polyline fill="none" stroke="#7FC8FF" stroke-width="10" stroke-miterlimit="10" points="319,305.5 405.6,180.7 467.9,243.1 
			535.3,140.8 596.9,117.5 660,70.9 730.8,141.6 		"/>
		<polyline fill="none" stroke="#FF390D" stroke-width="10" stroke-miterlimit="10" points="328.9,220.6 403.8,220.6 470.4,173 
			600.2,220.6 666.8,173 730.8,196.8 		"/>
	</g>
	<polygon fill="#FCD6B0" points="149.4,422 149.4,348.8 286.9,348.8 286.9,422 286.9,508.5 149.4,500.7 	"/>
	<path fill="#FCE2B9" d="M325.7,285.5c-13,11.2-13,5.8-13,5.8V183.2h-94.6h-94.6v108.1c0,0,0,5.5-13-5.8
		c-20.4-17.6-20.4,27.7-12.6,52.2s25,8.4,25,8.4c17.7,90.8,95,95,95,95s77.3-4.2,95-95c0,0,17.3,16.2,25-8.4
		C346.1,313.2,346.1,267.9,325.7,285.5z"/>
	<polygon fill="#F9F6F4" points="285.9,428.6 245.9,483.4 218.1,483.4 190.4,483.4 150.5,428.6 133.8,445.8 133.8,627.2 
		218.1,627.2 302.4,627.2 302.4,445.8 	"/>
	<g>
		<g>
			<polygon fill="#3C363B" points="133.2,449.4 50.1,502.7 10.1,629.1 189.9,629.1 133.2,526 			"/>
			<polygon fill="#3C363B" points="386.3,502.7 303,449.4 303,526 246.5,629.1 426.2,629.1 			"/>
			<polygon fill="#3C363B" points="253.6,539.2 235.8,503.8 218.1,503.8 200.5,503.8 182.7,539.2 200.5,551.4 190.5,629.1 
				218.1,629.1 245.8,629.1 235.8,551.4 			"/>
		</g>
	</g>
	<path fill="#8A5F3B" d="M127.3,328.2c0,0,4.5-88.7,68.8-90.9c64.3-2.2,64.3-42.1,64.3-42.1s52.1,29.9,47.7,94.3
		c-4.5,64.3,33.2-14.4,33.2-14.4c14-44.2,11.3-93.1-23.3-126.9c-16.2-15.9-40.2-24.9-57.7-7.3c0.1-0.1-25.7-11.8-27.6-12.4
		c-22.2-6.9-46.3-7.5-68.3,0.4c-39.4,14.1-70.3,51-76.1,92.6C83.6,255.3,89,315.2,127.3,328.2z"/>
</g>
<g display="none">
	<path display="inline" stroke="#000000" stroke-width="0.25" stroke-miterlimit="10" d="M217,142.5h-1.6h-1.6c-1.3,1.3,0,2.5,0,2.5
		h1.6h1.6C217,145,218.3,143.8,217,142.5z M216.6,144.5h-1.1h-1.1c0,0-1-0.7,0-1.6h1.1h1.1C217.6,143.8,216.6,144.5,216.6,144.5z"/>
	<path display="inline" stroke="#000000" stroke-width="0.25" stroke-miterlimit="10" d="M223,142.5h-1.6h-1.6c-1.3,1.3,0,2.5,0,2.5
		h1.6h1.6C223,145,224.3,143.8,223,142.5z M222.6,144.5h-1.1h-1.1c0,0-1-0.7,0-1.6h1.1h1.1C223.5,143.8,222.6,144.5,222.6,144.5z"/>
	
		<rect x="217.3" y="143.1" display="inline" stroke="#000000" stroke-width="0.25" stroke-miterlimit="10" width="2.2" height="0.8"/>
</g>
</svg>
