<?xml version="1.0" encoding="utf-8"?>
<!-- Generator: Adobe Illustrator 18.0.0, SVG Export Plug-In . SVG Version: 6.00 Build 0)  -->
<!DOCTYPE svg PUBLIC "-//W3C//DTD SVG 1.1//EN" "http://www.w3.org/Graphics/SVG/1.1/DTD/svg11.dtd">
<svg version="1.1" id="Layer_1" xmlns="http://www.w3.org/2000/svg" xmlns:xlink="http://www.w3.org/1999/xlink" x="0px" y="0px"
	 width="200px" height="200px"  enable-background="new 0 0 200 200" xml:space="preserve">
<g>
	<path d="M36,143c2.2-3.9,6-3.7,9.7-3.4c3.5,0.3,5.4-1,7-4.1c5.9-11.1,12.4-22,18.2-33.2c4-7.8,10.1-11.8,18.6-11.9
		c8-0.1,16,0,23.9,0.4c6.9,0.4,11.6,4.2,14.9,10.2c6.3,11.5,12.8,22.9,19,34.5c1.6,3.1,3.6,4.4,7,4.1c3.6-0.3,7.4-0.4,9.7,3.4
		c0,7,0,14,0,21c-42.7,0-85.3,0-128,0C36,157,36,150,36,143z M120.9,116.5c-0.4,0.1-0.9,0.2-1.3,0.3c0,6.9,0,13.9,0,20.8
		c0,4.5-2,6.7-6.7,6.6c-8.1-0.2-16.3,0-24.5,0c-6.9,0-8-1.2-8-8.2c0-6.4,0-12.8,0-19.2c-0.4-0.1-0.9-0.2-1.3-0.3
		c-4.2,7.5-8.4,15.1-12.3,22.1c4.1,3.2,7.5,6,11.1,8.6c1.5,1.1,3.4,2.1,5.2,2.1c11.3,0.2,22.6,0.2,33.9,0c1.5,0,3.2-0.7,4.4-1.6
		c3.8-2.8,7.5-5.9,11.5-9.1c-0.1-0.3-0.5-1.2-0.9-2.1C128.4,129.8,124.6,123.1,120.9,116.5z"/>
	<path d="M104,36c10.1,3,16.9,9.1,21.9,18.7c2.3,4.6,3.4,8.6,3.4,13.3c0,3,0,6.8-4,6.7c-2.2,0-4.3-2.4-6.4-3.7
		c-2.7,8-8.7,13.9-18.9,13.9S83.9,79,81.1,71c-2.1,1.3-4.2,3.7-6.4,3.7c-4,0.1-4-3.6-4-6.7c-0.3-12.9,9.7-26.9,22.1-30.8
		c1.1-0.3,2.1-0.8,3.2-1.2C98.7,36,101.3,36,104,36z M119.3,61.4c2.9-4.6,0.9-8-1.5-11.3C108.7,37.7,91,37.8,82,50.3
		c-2.4,3.4-4.1,6.9-1.4,11.2c3.1-9.6,9.4-15.5,19.7-15.4C110.3,46.3,116.2,52.2,119.3,61.4z"/>
</g>
</svg>
