<?xml version="1.0" encoding="utf-8"?>
<!-- Generator: Adobe Illustrator 18.0.0, SVG Export Plug-In . SVG Version: 6.00 Build 0)  -->
<!DOCTYPE svg PUBLIC "-//W3C//DTD SVG 1.1//EN" "http://www.w3.org/Graphics/SVG/1.1/DTD/svg11.dtd">
<svg version="1.1" id="Layer_1" xmlns="http://www.w3.org/2000/svg" xmlns:xlink="http://www.w3.org/1999/xlink" x="0px" y="0px"
	 width="800px" height="800px" viewBox="0 0 800 800" enable-background="new 0 0 800 800" xml:space="preserve">
<rect x="20" y="199.5" fill="#FFFFFF" width="760" height="401"/>
<g>
	<rect x="69.5" y="298" fill="#009688" stroke="#000000" stroke-width="5" stroke-miterlimit="10" width="184" height="204"/>
	<rect x="308.5" y="298" fill="#00BCD4" stroke="#000000" stroke-width="5" stroke-miterlimit="10" width="184" height="204"/>
	<rect x="546.5" y="298" fill="#FFC107" stroke="#000000" stroke-width="5" stroke-miterlimit="10" width="184" height="204"/>
	<polygon opacity="0.4" enable-background="new    " points="69.5,502 253,298 253,502 	"/>
	<polygon opacity="0.4" enable-background="new    " points="308.5,502 492,298 492,502 	"/>
	<polygon opacity="0.4" enable-background="new    " points="546.5,502 730,298 730,502 	"/>
</g>
<g>
	<polygon id="Neck_1_" fill="#F8CEB6" points="568.3,378.8 555.7,378.8 555.7,405.8 568.3,405.8 580.9,405.8 580.9,378.8 	"/>
	<path id="Hand_1_" fill="#FADBC9" d="M638.3,528l21.7-6.5c0,0,8.7,13.9-4.3,19.7C642.6,546.9,638.3,528,638.3,528z"/>
	<path fill="#03577C" d="M526.8,555.2l0.9,158.8c0,0,15.3,16.8,31.3,0.1V559L526.8,555.2z"/>
	<path fill="#03577C" d="M577.8,555.2l0.9,158.8c0,0,15.3,16.8,31.3,0.1V559L577.8,555.2z"/>
	<path id="Suit_1_" fill="#F44336" d="M635.6,529.8l23.8-7.1l-30.3-106.6c-1.6-16.8-11.4-21.7-11.4-21.7h-24.4c0,0,16,0-12.4,0
		c-12.6,23.3-25.3,0-25.3,0h-15.4h-24.4c0,0-9.8,4.9-11.4,21.7l-27.8,104.1l21.3,9.6l17.3-59.6v94.7l51.1,8.9h0.7l51.1-9v-94.5
		L635.6,529.8z"/>
	<ellipse id="Hair_2_" cx="568.3" cy="340.6" rx="38.4" ry="42.5"/>
	<path id="Head_2_" fill="#F8CEB6" d="M602.2,347.5c0,0-9.4-30.7-34-20.2c-24.6-10.5-34,20.2-34,20.2c-8.7,11.5,2.1,14.8,2.1,14.8
		c7.6,21.7,18.8,25.4,18.8,25.4h13h13c0,0,11.2-3.7,18.8-25.4C600.1,362.3,610.9,359.1,602.2,347.5z"/>
	<path d="M543.1,312.7c0,0,52.5-10.9,59.2,10.5s1.3,26.8,1.3,26.8l-24.4,16.8l15.5-22.7L570,354.6l13.6-13.6l-24.9,0.3l8.4-8.4
		l-18.1-1.3l17.6-3.9C566.6,327.7,565,312.7,543.1,312.7z"/>
	<path id="Hand_2_" fill="#FADBC9" d="M477,520.9l20.7,9.1c0,0-2.4,16.2-16.1,12.2C468,538.2,477,520.9,477,520.9z"/>
</g>
</svg>
