<?xml version="1.0" encoding="utf-8"?>
<!-- Generator: Adobe Illustrator 18.0.0, SVG Export Plug-In . SVG Version: 6.00 Build 0)  -->
<!DOCTYPE svg PUBLIC "-//W3C//DTD SVG 1.1//EN" "http://www.w3.org/Graphics/SVG/1.1/DTD/svg11.dtd">
<svg version="1.1" id="Layer_1" xmlns="http://www.w3.org/2000/svg" xmlns:xlink="http://www.w3.org/1999/xlink" x="0px" y="0px"
	 width="200px" height="200px" viewBox="-487 553 200 200" enable-background="new -487 553 200 200" xml:space="preserve">
<g>
	<path d="M-451,698.3c0,3.2,2.1,5.3,5.3,5.3h117.3c3.2,0,5.3-2.1,5.3-5.3V693h-128V698.3z"/>
	<path d="M-333.7,682.3h10.7c0-33.6-25.6-60.8-58.7-63.5V613h5.3c3.2,0,5.3-2.1,5.3-5.3c0-3.2-2.1-5.3-5.3-5.3h-21.3
		c-3.2,0-5.3,2.1-5.3,5.3c0,3.2,2.1,5.3,5.3,5.3h5.3v5.9c-33.1,2.7-58.7,29.9-58.7,63.5h10.7H-333.7z M-387,629
		c25.6,0,47.5,18.1,52.3,42.7h-104.5C-434.5,647.1-412.6,629-387,629z"/>
	<path d="M-363,640.7l-2.7,4.8c8,4.8,14.4,11.7,18.1,20.3l4.8-2.1C-346.5,654.1-353.9,646.1-363,640.7z"/>
</g>
</svg>
