<?xml version="1.0" encoding="utf-8"?>
<!-- Generator: Adobe Illustrator 18.0.0, SVG Export Plug-In . SVG Version: 6.00 Build 0)  -->
<!DOCTYPE svg PUBLIC "-//W3C//DTD SVG 1.1//EN" "http://www.w3.org/Graphics/SVG/1.1/DTD/svg11.dtd">
<svg version="1.1"
	 id="svg6584" xmlns:rdf="http://www.w3.org/1999/02/22-rdf-syntax-ns#" xmlns:dc="http://purl.org/dc/elements/1.1/" xmlns:svg="http://www.w3.org/2000/svg" xmlns:cc="http://creativecommons.org/ns#"
	 xmlns="http://www.w3.org/2000/svg" xmlns:xlink="http://www.w3.org/1999/xlink" x="0px" y="0px" width="200px" height="200px"
	 viewBox="-449 591 200 200" enable-background="new -449 591 200 200" xml:space="preserve">
<g id="layer1" transform="translate(0,-952.362)">
	<path id="rect7645-6" d="M-349,1582.7l-50.5,33.7h101.1L-349,1582.7z M-392.8,1623.2c-3.7,0-6.7,3-6.7,6.7v47.2l-11.8,20.2
		c-1,1.7-1.7,2.4-1.7,3.4c0,3.4,4.3,3.4,6.7,3.4h114.5c2.4,0,6.7,0,6.7-3.4c0-1-0.6-1.5-1.7-3.4l-11.8-20.2v-47.2
		c0-3.7-3-6.7-6.7-6.7H-392.8z M-379.3,1636.6c3.7,0,6.1,3.1,6.7,6.7v40.4h-13.5v-13.5v-26.9C-386.1,1639.6-383,1636.6-379.3,1636.6
		L-379.3,1636.6z M-349,1636.6c3.7,0,6.8,3,6.7,6.7v26.9v13.5h-13.5v-13.5v-26.9C-355.7,1639.6-352.7,1636.6-349,1636.6L-349,1636.6
		z M-318.7,1636.6c3.7,0,6.7,3,6.7,6.7v40.4h-13.5v-13.5v-26.9C-325.4,1639.6-322.4,1636.6-318.7,1636.6L-318.7,1636.6z"/>
</g>
</svg>
