<?xml version="1.0" encoding="utf-8"?>
<!-- Generator: Adobe Illustrator 18.0.0, SVG Export Plug-In . SVG Version: 6.00 Build 0)  -->
<!DOCTYPE svg PUBLIC "-//W3C//DTD SVG 1.1//EN" "http://www.w3.org/Graphics/SVG/1.1/DTD/svg11.dtd">
<svg version="1.1" id="Layer_1" xmlns="http://www.w3.org/2000/svg" xmlns:xlink="http://www.w3.org/1999/xlink" x="0px" y="0px"
	 width="200px" height="200px" viewBox="-483 557 200 200" enable-background="new -483 557 200 200" xml:space="preserve">
<g id="bulb">
	<path d="M-383,593c-24.3,0-44,19.7-44,44c0,16.1,14.8,33.2,20.1,48.2c8,22.4,7.1,35.8,23.9,35.8c17,0,15.9-13.3,23.9-35.7
		c5.4-15,20.1-32.3,20.1-48.3C-339,612.7-358.7,593-383,593z M-372.6,701.7l-19.8,2.5c-0.7-2-1.5-4.4-2.4-7.6c0,0,0-0.1,0-0.1
		l24.8-3.1c-0.4,1.2-0.7,2.4-1.1,3.5C-371.7,698.7-372.2,700.3-372.6,701.7z M-396.1,692.6c-0.7-2.4-1.5-4.9-2.5-7.6h31.1
		c-0.5,1.4-1,2.9-1.4,4.2L-396.1,692.6z M-383,713c-4.1,0-5.9-0.5-8-5l17-2.1C-376.5,712.5-378.3,713-383,713z M-364.3,677h-37.3
		c-2-4.3-4.4-8.6-6.7-12.9c-5.2-9.3-10.6-19-10.6-27.1c0-19.9,16.1-36,36-36s36,16.1,36,36c0,8.1-5.4,17.8-10.6,27.2
		C-360,668.4-362.3,672.7-364.3,677z"/>
	<path d="M-383,613c-13.2,0-24,10.8-24,24c0,1.1,0.9,2,2,2s2-0.9,2-2c0-11,9-20,20-20c1.1,0,2-0.9,2-2S-381.9,613-383,613z"/>
</g>
</svg>
