<?xml version="1.0" encoding="utf-8"?>
<!-- Generator: Adobe Illustrator 18.0.0, SVG Export Plug-In . SVG Version: 6.00 Build 0)  -->
<!DOCTYPE svg PUBLIC "-//W3C//DTD SVG 1.1//EN" "http://www.w3.org/Graphics/SVG/1.1/DTD/svg11.dtd">
<svg version="1.1" id="Layer_1" xmlns="http://www.w3.org/2000/svg" xmlns:xlink="http://www.w3.org/1999/xlink" x="0px" y="0px"
	 width="800px" height="800px" viewBox="0 0 800 800" enable-background="new 0 0 800 800" xml:space="preserve">
<g>
	<path fill="#F3C834" d="M543.1,248.8c-10.7-56.8-47.8-97.7-105.9-106.9c-12.3-2-24.9-2.6-36.9-2.3c-12.4-0.3-24.9,0.4-37.2,2.3
		c-58.1,9.3-95.6,50.1-106.2,106.9c-4.1,22-4.4,44.3-2.9,66.6c2.8,42.8,29.2,75.3,48.5,112.1c15.2,29.2,29,59.8,37.8,91.5
		c0.8,2.8,13.8,66,6.5,66c0,0,53.6,0,53.6,0s53,0,53,0c-7.3,0,5.7-63.2,6.5-66c8.8-31.8,22.6-62.3,37.8-91.4
		c19.3-36.8,45.6-69.4,48.5-112.2C547.5,293.2,547.2,270.7,543.1,248.8z"/>
	<path opacity="0.1" d="M453.3,585c0,0-49.3,0-53.3,0V139.5c12-0.2,24.7,0.4,36.9,2.3c58.1,9.3,95.6,50.1,106.2,106.9
		c4.1,22,4.4,44.3,2.9,66.6c-2.8,42.8-29.2,75.3-48.5,112.1c-15.2,29.2-29,59.8-37.8,91.5C459,521.8,446,585,453.3,585z"/>
	<circle fill="#696A6B" stroke="#000000" stroke-miterlimit="10" cx="400.3" cy="635.2" r="24"/>
	<path fill="#696A6B" stroke="#000000" stroke-miterlimit="10" d="M344.3,585.5h109.3c0,0,22.7,10,0,26H344.3
		C344.3,611.5,329,600.5,344.3,585.5z"/>
	<path fill="#696A6B" stroke="#000000" stroke-miterlimit="10" d="M344.3,611.5h109.3c0,0,22.7,9,0,25H344.3
		C344.3,636.5,329,625.5,344.3,611.5z"/>
	<polyline fill="none" stroke="#000000" stroke-width="6" stroke-miterlimit="10" points="384,589 384,339.4 407.5,390 417,362 
		417,589 	"/>
	<path opacity="0.31" d="M400,587h56.1c15.3,16,0,25,0,25c15.3,15.3,0,25,0,25h-32c0,12-11.1,23.5-24.1,23.5V587z"/>
	<path fill="#464646" d="M649.2,184.1c0,1.8,0,2.9,0,4c0,59.6-0.2,119.1,0.1,178.7c0.1,16.6-9.8,27.8-23,32.6
		c-15.2,5.6-30,4.2-43.3-5.5c-14.5-10.6-18.2-29.7-5.2-44.4c7.3-8.3,16.7-12,27.6-13.1c7.1-0.7,13.7,0.7,20.5,2.4
		c0-33.8,0-67.4,0-101.3c-4.3,1.4-8.5,2.7-12.7,4.1c-15.5,5.1-31,10.3-46.5,15.4c-17.4,5.8-34.9,11.7-52.3,17.5
		c-2.8,1-5.8,1.7-8.5,2.9c-0.9,0.4-1.5,1.6-2,2.5c-0.3,0.5,0,1.2,0,1.8c0,45.3,0,90.6,0,136c0,11.2-4.9,20.1-14,26
		c-16.4,10.7-33.7,11.1-50.4,0.8c-16.9-10.4-20.1-30.6-8.1-45c7.6-9.1,17.7-13.5,29.4-14.2c6.5-0.4,13,0.1,19.8,2.9c0-1.7,0-2.9,0-4
		c0-47.2,0-94.4,0-141.6c0-2.5,0.4-3.9,3.1-4.7c12.4-3.9,24.8-8.1,37.2-12.2c20.9-6.9,41.8-13.9,62.8-20.8
		c17.5-5.7,35-11.4,52.6-17.1c3.3-1.1,6.5-2.1,9.8-3.1C646.8,184.5,647.8,184.4,649.2,184.1z"/>
</g>
</svg>
