<?xml version="1.0" encoding="utf-8"?>
<!-- Generator: Adobe Illustrator 18.0.0, SVG Export Plug-In . SVG Version: 6.00 Build 0)  -->
<!DOCTYPE svg PUBLIC "-//W3C//DTD SVG 1.1//EN" "http://www.w3.org/Graphics/SVG/1.1/DTD/svg11.dtd">
<svg version="1.1" id="Layer_1" xmlns="http://www.w3.org/2000/svg" xmlns:xlink="http://www.w3.org/1999/xlink" x="0px" y="0px"
	 width="200px" height="200px" viewBox="-487 553 200 200" enable-background="new -487 553 200 200" xml:space="preserve">
<g>
	<path d="M-324.6,605.5l-14.9-14.9c-2.1-2.1-5.3-2.1-7.5,0L-449.4,693c-2.1,2.1-2.1,5.3,0,7.5l14.9,14.9c2.1,2.1,5.3,2.1,7.5,0
		L-324.6,613C-322.5,610.9-322.5,607.7-324.6,605.5z M-430.7,704.2l-7.5-7.5l68.3-68.3l7.5,7.5L-430.7,704.2z M-358.7,632.2
		l-7.5-7.5l22.4-22.4l7.5,7.5L-358.7,632.2z"/>
	<polygon points="-387,621 -382.7,609.3 -371,605 -382.7,600.7 -387,589 -391.3,600.7 -403,605 -391.3,609.3 	"/>
	<polygon points="-424.3,637 -420.1,625.3 -408.3,621 -420.1,616.7 -424.3,605 -428.6,616.7 -440.3,621 -428.6,625.3 	"/>
	<polygon points="-339,653 -343.3,664.7 -355,669 -343.3,673.3 -339,685 -334.7,673.3 -323,669 -334.7,664.7 	"/>
</g>
</svg>
