<?xml version="1.0" encoding="utf-8"?>
<!-- Generator: Adobe Illustrator 18.0.0, SVG Export Plug-In . SVG Version: 6.00 Build 0)  -->
<!DOCTYPE svg PUBLIC "-//W3C//DTD SVG 1.1//EN" "http://www.w3.org/Graphics/SVG/1.1/DTD/svg11.dtd">
<svg version="1.1" id="Layer_1" xmlns:sketch="http://www.bohemiancoding.com/sketch/ns"
	 xmlns="http://www.w3.org/2000/svg" xmlns:xlink="http://www.w3.org/1999/xlink" x="0px" y="0px" width="200px" height="200px"
	 viewBox="-399 641 200 200" enable-background="new -399 641 200 200" xml:space="preserve">
<title></title>
<g id="Icons_with_numbers">
	<g id="Group" transform="translate(-480.000000, -192.000000)">
		<path id="Rectangle_233" d="M162.5,915.4v62.4l0,0c0.1,5.7-4.3,12.1-13.5,16.2c-12.7,5.6-26,2.9-30.9-3.6s-1.3-16.7,11.4-22.3
			c8.5-3.8,17.3-3.8,23.7-1.4V917v-32l92.9-16v8v24v68.8l0,0c0.1,5.7-4.3,12.1-13.5,16.2c-12.7,5.6-26,2.9-30.9-3.6
			s-1.3-16.7,11.4-22.3c8.5-3.8,17.3-3.8,23.7-1.4v-56L162.5,915.4z"/>
	</g>
</g>
</svg>
