<?xml version="1.0" encoding="utf-8"?>
<!-- Generator: Adobe Illustrator 18.0.0, SVG Export Plug-In . SVG Version: 6.00 Build 0)  -->
<!DOCTYPE svg PUBLIC "-//W3C//DTD SVG 1.1//EN" "http://www.w3.org/Graphics/SVG/1.1/DTD/svg11.dtd">
<svg version="1.1" id="Layer_1" xmlns="http://www.w3.org/2000/svg" xmlns:xlink="http://www.w3.org/1999/xlink" x="0px" y="0px"
	 width="64px" height="64px" viewBox="0 0 64 64" enable-background="new 0 0 64 64" xml:space="preserve">
<g>
	<path fill="#37474F" d="M32,3.6c-11.6,0-20.9,9.3-20.9,20.9c0,3.9,1.2,7.8,3.3,11.1c0.1,0.3,0.2,0.3,0.3,0.6l13,23.9
		c0.6,1.8,2.3,3.3,4.3,3.3s3.6-1.5,4.2-3.3l14.5-26c1.5-3,2.3-6.3,2.3-9.6C52.9,12.8,43.6,3.6,32,3.6z M31.9,15.2
		c5.8,0,10.5,4.8,10.5,10.5c0,6-4.7,10.5-10.5,10.5s-10.5-4.5-10.5-10.5C21.4,20,26.1,15.2,31.9,15.2z"/>
	<path fill="#607D8B" d="M32,0.7c-11.6,0-20.9,9.4-20.9,20.9c0,4.1,1.2,8,3.3,11.2c0.1,0.2,0.2,0.3,0.3,0.5l13,24.1
		c0.6,1.8,2.3,3.1,4.3,3.1s3.6-1.3,4.2-3.1l14.5-26.2c1.5-2.9,2.3-6.2,2.3-9.6C52.9,10,43.6,0.7,32,0.7z M31.9,12.5
		c5.8,0,10.5,4.7,10.5,10.5s-4.7,10.5-10.5,10.5S21.4,28.8,21.4,23S26.1,12.5,31.9,12.5z"/>
</g>
</svg>
