<?xml version="1.0" encoding="utf-8"?>
<!-- Generator: Adobe Illustrator 18.0.0, SVG Export Plug-In . SVG Version: 6.00 Build 0)  -->
<!DOCTYPE svg PUBLIC "-//W3C//DTD SVG 1.1//EN" "http://www.w3.org/Graphics/SVG/1.1/DTD/svg11.dtd">
<svg version="1.1" id="Layer_1" xmlns="http://www.w3.org/2000/svg" xmlns:xlink="http://www.w3.org/1999/xlink" x="0px" y="0px"
	 width="800px" height="800px" viewBox="0 0 800 800" enable-background="new 0 0 800 800" xml:space="preserve">
<g>
	<path fill="#D6D6D6" d="M578.1,276.3c9.4,15.4,4,27.8-8.8,40.5c13.3,22.6,27.3,45.2,40,68.6c3.9,7.2,6.2,17,5.1,25.1
		c-1.7,12.8-9.5,19.2-24.6,17c-55.5-8.1-110.7-8.1-164.5,11c-14.1,5.1-28.4,9.5-31.3,27c-2.8,17.2,2.1,31,18.7,39.2
		c1.6,0.8,3.4,3,3.5,4.6c3.2,25.6,23.1,29.7,43.1,33.8c4.1,0.8,8.1,1.7,12,2.6c-0.8,26.4-19.9,43.8-60,55.7
		c-7.9-3.1-17.7-4.3-23.4-9.8c-20.5-20-39.4-41.3-59-62.1c-4.2-10.3-8.4-20.6-12.8-31.3c-12.3,6.3-23.7,12.2-35.1,18
		c-26.6,1.5-37.7-16.8-46.9-37.1c49.2-29,98.4-58,147.5-86.9c3.5,5.8,6.3,12.5,11,17.1c3.1,3.1,10.1,5.7,13.7,4.3
		c50-19.5,101.8-23.3,154.6-19.3c5.5,0.4,10.9,0.5,20.2,1c-18.9-32-35.9-60.8-52.8-89.6C545,295.8,561.5,286.1,578.1,276.3z"/>
	<path fill="#FFFFFF" d="M381.9,392.1c-49.2,29-98.4,58-147.5,86.9c-3.4-5.3-6.9-10.5-10-16c-11.8-20.9-7.1-39.7,13.8-52.5
		c21.5-13.1,42.8-26.9,65.2-38.3c73-37.1,117.3-98,146.2-172.1c9.5-24.4,17.7-27.4,41.3-15c15.6,26.4,31.2,52.9,47,79.7
		c16.4-4.3,30.8-4.6,40.2,11.5c-16.5,9.8-33.1,19.5-49.5,29.2c-17.3-29.4-34.6-58.7-53.2-90.3c-22.3,51.8-47.8,97.1-87.1,133.4
		C368,367.5,368.1,367.5,381.9,392.1z"/>
</g>
</svg>
