<?xml version="1.0" encoding="utf-8"?>
<!-- Generator: Adobe Illustrator 18.0.0, SVG Export Plug-In . SVG Version: 6.00 Build 0)  -->
<!DOCTYPE svg PUBLIC "-//W3C//DTD SVG 1.1//EN" "http://www.w3.org/Graphics/SVG/1.1/DTD/svg11.dtd">
<svg version="1.1" id="Capa_1"
	 xmlns="http://www.w3.org/2000/svg" xmlns:xlink="http://www.w3.org/1999/xlink" xmlns:a="http://ns.adobe.com/AdobeSVGViewerExtensions/3.0/"
	 x="0px" y="0px" viewBox="-254 788.1 60 55.8" enable-background="new -254 788.1 60 55.8" xml:space="preserve">
<g>
	<path d="M-228.2,790.6v10c0,1.4-1.1,2.5-2.5,2.5c-4.8,0-7.5,5-7.8,14.8h7.8c1.4,0,2.5,1.1,2.5,2.5v21.1c0,1.4-1.1,2.5-2.5,2.5
		h-20.9c-1.4,0-2.5-1.1-2.5-2.5v-21.1c0-4.7,0.5-9,1.4-12.8c1-3.9,2.4-7.3,4.4-10.1c2-2.9,4.5-5.2,7.4-6.8c2.9-1.6,6.4-2.4,10.2-2.4
		C-229.3,788.1-228.2,789.2-228.2,790.6z M-196.5,803c1.4,0,2.5-1.1,2.5-2.5v-10c0-1.4-1.1-2.5-2.5-2.5c-3.8,0-7.2,0.8-10.2,2.4
		c-2.9,1.6-5.4,3.9-7.4,6.8c-1.9,2.8-3.4,6.2-4.4,10.2c-0.9,3.8-1.4,8.1-1.4,12.8v21.1c0,1.4,1.1,2.5,2.5,2.5h20.9
		c1.4,0,2.5-1.1,2.5-2.5v-21.1c0-1.4-1.1-2.5-2.5-2.5h-7.7C-203.8,808-201.2,803-196.5,803z"/>
</g>
</svg>
