<?xml version="1.0" encoding="utf-8"?>
<!-- Generator: Adobe Illustrator 18.0.0, SVG Export Plug-In . SVG Version: 6.00 Build 0)  -->
<!DOCTYPE svg PUBLIC "-//W3C//DTD SVG 1.1//EN" "http://www.w3.org/Graphics/SVG/1.1/DTD/svg11.dtd" [
	<!ENTITY ns_flows "http://ns.adobe.com/Flows/1.0/">
	<!ENTITY ns_extend "http://ns.adobe.com/Extensibility/1.0/">
	<!ENTITY ns_ai "http://ns.adobe.com/AdobeIllustrator/10.0/">
	<!ENTITY ns_graphs "http://ns.adobe.com/Graphs/1.0/">
]>
<svg version="1.1" id="Capa_1" xmlns:x="&ns_extend;" xmlns:i="&ns_ai;" xmlns:graph="&ns_graphs;"
	 xmlns="http://www.w3.org/2000/svg" xmlns:xlink="http://www.w3.org/1999/xlink" xmlns:a="http://ns.adobe.com/AdobeSVGViewerExtensions/3.0/"
	 x="0px" y="0px" viewBox="-400 906.7 800 746.7" enable-background="new -400 906.7 800 746.7" xml:space="preserve">
<g>
	<path d="M55.3,1618.7v-133.3c0-18.7,14.7-33.3,33.3-33.3c64,0,100-66.7,104-197.3h-104c-18.7,0-33.3-14.7-33.3-33.3V940
		c0-18.7,14.7-33.3,33.3-33.3h278.7c18.7,0,33.3,14.7,33.3,33.3v281.3c0,62.7-6.7,120-18.7,170.7c-13.3,52-32,97.3-58.7,134.7
		c-26.7,38.7-60,69.3-98.7,90.7s-85.3,32-136,32C70,1652,55.3,1637.3,55.3,1618.7z M-367.3,1453.3c-18.7,0-33.3,14.7-33.3,33.3V1620
		c0,18.7,14.7,33.3,33.3,33.3c50.7,0,96-10.7,136-32c38.7-21.3,72-52,98.7-90.7c25.3-37.3,45.3-82.7,58.7-136
		c12-50.7,18.7-108,18.7-170.7V942.7c0-18.7-14.7-33.3-33.3-33.3h-278.7c-18.7,0-33.3,14.7-33.3,33.3V1224
		c0,18.7,14.7,33.3,33.3,33.3h102.7C-270,1386.7-304.7,1453.3-367.3,1453.3z"/>
</g>
</svg>
