<?xml version="1.0" encoding="utf-8"?>
<!-- Generator: Adobe Illustrator 18.0.0, SVG Export Plug-In . SVG Version: 6.00 Build 0)  -->
<!DOCTYPE svg PUBLIC "-//W3C//DTD SVG 1.1//EN" "http://www.w3.org/Graphics/SVG/1.1/DTD/svg11.dtd">
<svg version="1.1" id="Layer_1" xmlns="http://www.w3.org/2000/svg" xmlns:xlink="http://www.w3.org/1999/xlink" x="0px" y="0px"
	 width="200px" height="200px" viewBox="-100 1180 200 200" enable-background="new -100 1180 200 200" xml:space="preserve">
<path d="M48.3,1279.6c-0.7,0-4,9.6-4,9.6s-4.7-1.8-6.3-1.2c-1.6,0.6-4.7,4-3.2,6.8c1.5,2.8,7.8,2.6,9.3,2.2s3.8-8.5,4.1-8.6
	c0.3-0.1,7.7,2.9,8.4,3.4c0.7,0.5-0.6,3.6-0.6,3.6s-3.5,0.4-5,1.6c-1.5,1.2-2.4,3-0.9,5.1c1.5,2.1,5.3,1.4,7.5-0.6
	c2.2-2,4.4-15.2,4.5-16.1C62.1,1284.6,49,1279.6,48.3,1279.6L48.3,1279.6z M57,1289.4c-0.4-0.3-7.8-3.8-7.8-3.8l0.6-1.6
	c0.5,0,8.8,2.6,8.8,2.9C58.6,1287.2,57.4,1289.7,57,1289.4L57,1289.4z M17.4,1241.5c3,1.5,7.5-0.4,8.8-1.8
	c1.3-1.4,2.5-10.8,2.6-11.2c0.1-0.4,6.3,0.6,6.7,0.6c0.4,0,2.1-8,2.1-8.6c0-0.6-8.8-2.7-9.9-2.6c-1.1,0.1-2.3,17.3-2.9,16.8
	c-2.1-2.1-7.9-2.1-9.6,0.3C13.5,1237.3,14.4,1240,17.4,1241.5L17.4,1241.5z M27.8,1250.8c-5.7-3.4-70.8-1.2-74.9,0.9
	c-2.8,1.4-1.8,7-0.4,19.2c1.4,12.1,6.7,62,7.6,67.9c0.9,5.9,7.8,5,18.1,4.9s43.1,1.1,45.9-0.7c2.8-1.8,2.3-16.1,3.2-25.3
	C28.1,1308.5,33.4,1254.2,27.8,1250.8L27.8,1250.8z M22.5,1316.4l-3.7-2.9c0,0-1.3,1.5-1,1.9c0.3,0.4,4.6,5.1,4.6,5.4
	c0,0.3,0.3,3.5-0.1,3.4c-0.4-0.1-4.9-4.4-5.4-4.4c-0.5,0-1.6,1.4-1.3,2.3c0.3,0.9,6.5,5.7,6.5,6c0,0.3-0.6,4.8-0.6,4.8
	s-6-6.2-6.7-6.2s-2.7,0.5-1.6,2.1s7.4,6.6,6.6,7.6c-0.8,1-1.9,1.2-2.4,0.9c-0.5-0.3-5.7-7.1-6.4-7s-1.7,1.6-1.5,2s5.7,5.2,4.3,5.6
	c-1.4,0.4-13,0.9-25,1c-11.9,0.1-21.7-0.4-23-3.1c-1.3-2.7-3.4-24.7-5.2-42.1c-1.8-17.5-4.3-36-3.4-38c0.5-1.2,23.7-1.8,37.4-1.7
	s29.4-1.2,30.8,5.9C26.9,1267,22.5,1316.4,22.5,1316.4L22.5,1316.4z M-59.4,1216.1c-2.1,1.5,4.4,15,4.4,15l-2.5,0.6
	c-2.5,0.6-5.2,3.7-4.4,6.3c0.8,2.6,4,3.9,7.1,2.8c3.1-1.1,5.2-2.6,5.4-5.2c0.2-2.6-4.9-13.8-4.9-13.8s4.3,0.7,4.9,0.4
	c0.6-0.3,0.7-1.9,0.2-3.4C-49.7,1217.3-58.7,1215.6-59.4,1216.1L-59.4,1216.1z M-14.4,1281.8c8.9,5.4,23.5-0.3,22.6-11.4
	c-0.9-11.1-10.7-16.7-20.3-12.4C-23.5,1263-23.2,1276.4-14.4,1281.8z M-9.6,1260.7c3.3-1.5,14.4,0.4,14.7,10.8
	c0.3,10.4-15.1,10-19.1,6.4S-20.7,1265.8-9.6,1260.7L-9.6,1260.7z M-31.6,1261.2c0.6-0.3,0.1-1.4-0.8-1.9c-0.9-0.5-5.3-0.7-6.4,0.4
	c-0.5,0.5,0.9,13.1,1.5,14.4c0.6,1.3,2.3,0.3,3.1,0.1c0.8-0.2-1.3-12-1.1-12.3C-35.1,1261.6-32.2,1261.5-31.6,1261.2L-31.6,1261.2z
	 M18.2,1271.4c0,0-2,17.9-1.6,19.3c0.4,1.4,2.2,1.1,3,1.1c0.8,0,2.1-19.6,1.9-20.2C21.3,1271,18.5,1271.3,18.2,1271.4L18.2,1271.4z
	 M-8.2,1287.1c-11.3,0.5-16.2,3.9-21,12.1c-4.8,8.2-2.9,17.1,2.6,24.9c5.5,7.8,19.8,9,28.1,5.1c8.3-3.9,11.5-9.7,11.2-23.3
	C12.2,1292.4-0.8,1286.8-8.2,1287.1L-8.2,1287.1z M-10,1327.8c-11.6-1.7-19.2-7.7-19.5-18c-0.3-10.2,7.4-21,21.2-19.3
	c6.9,0.8,16.9,2.1,18.4,15.2S1.7,1329.6-10,1327.8L-10,1327.8z M-8.5,1292.6c-8.5,0.4-12.2,3-15.8,9.2c-3.6,6.2-2.2,12.9,2,18.8
	c4.1,5.9,14.9,6.8,21.2,3.9c6.2-3,8.7-7.3,8.4-17.6C6.8,1296.6-3,1292.3-8.5,1292.6L-8.5,1292.6z M-9.8,1316.3
	c-4.4-0.6-7.3-2.9-7.4-6.8c-0.1-3.9,2.8-7.9,8-7.3c2.6,0.3,6.4,0.8,7,5.8C-1.6,1312.9-5.3,1316.9-9.8,1316.3z M-12.1,1268.8
	c0.3-1.7,1.5-2.6,2.4-3.5c0.9-0.9-0.8-1.8-1.3-1.6c-4.6,2.2-4.7,5.9-4.4,6.9c0.3,1,1.9,1.2,2.6,1.2
	C-12.1,1271.8-12.4,1270.5-12.1,1268.8L-12.1,1268.8z M-10.3,1274.3c1.8,2.8,8,2.8,9.9-0.8c1.9-3.6,0.2-7.6-3.9-7.8
	C-11.4,1265.2-12.1,1271.5-10.3,1274.3L-10.3,1274.3z M-4.7,1268.8c2.2,0.1,2.9,2.2,2.1,3.3c-0.8,1.1-4,1.8-4.8,0.6
	C-8.2,1271.5-8.1,1268.7-4.7,1268.8L-4.7,1268.8z M-9.3,1305.1c-3.1-0.4-4.8,2-4.7,4.3c0.1,2.3,1.8,3.6,4.4,4c2.6,0.4,4.8-2,4.5-4.9
	C-5.5,1305.5-7.8,1305.3-9.3,1305.1L-9.3,1305.1z"/>
</svg>
