<?xml version="1.0" encoding="utf-8"?>
<!-- Generator: Adobe Illustrator 18.0.0, SVG Export Plug-In . SVG Version: 6.00 Build 0)  -->
<!DOCTYPE svg PUBLIC "-//W3C//DTD SVG 1.1//EN" "http://www.w3.org/Graphics/SVG/1.1/DTD/svg11.dtd">
<svg version="1.1" id="Layer_1"
	 xmlns="http://www.w3.org/2000/svg" xmlns:xlink="http://www.w3.org/1999/xlink" xmlns:a="http://ns.adobe.com/AdobeSVGViewerExtensions/3.0/"
	 x="0px" y="0px" width="500px" height="500px" enable-background="new 0 0 500 500" xml:space="preserve">
<rect x="-253.5" y="-163" display="none" fill="#455A64" width="1365" height="851"/>
<g>
	<linearGradient id="SVGID_1_" gradientUnits="userSpaceOnUse" x1="27.7428" y1="250" x2="472.2572" y2="250">
		<stop  offset="0" style="stop-color:#999999"/>
		<stop  offset="0.5" style="stop-color:#F2F2F2"/>
		<stop  offset="1" style="stop-color:#999999"/>
		<a:midPointStop  offset="0" style="stop-color:#999999"/>
		<a:midPointStop  offset="0.5" style="stop-color:#999999"/>
		<a:midPointStop  offset="0.5" style="stop-color:#F2F2F2"/>
		<a:midPointStop  offset="0.5" style="stop-color:#F2F2F2"/>
		<a:midPointStop  offset="1" style="stop-color:#999999"/>
	</linearGradient>
	<path fill="url(#SVGID_1_)" stroke="#000000" stroke-width="3" stroke-miterlimit="10" d="M242.9,487.1
		c-9.7-6.6-21.5-14.5-24.1-15.9c-3.4-1.5-4.7-2.1-5.9-2.8c-6.5-3.4-12.6-7-18.4-10.4l-1.2-0.7c-6.5-3.8-12.6-7.3-19-10.6
		c-31.9-16.5-59.6-40.7-80.1-70c-31-44.3-36.4-91.4-41.5-137c-1-8.5-1.9-16.7-3-24.8c-2.7-20.6-5.5-39.2-8.2-57.1l-0.1-0.9
		c-2.7-18.2-5.5-36.9-8.3-57.9c-0.3-2.3-0.6-4.6-0.9-6.9l-0.5-3.9c-0.4-3.2-0.9-6.4-1.3-9.7l-2.7-20.3L46.1,49
		c53.5-26.8,118.7-41,188.5-41c5.2,0,10.4,0.1,15.4,0.2c5-0.2,10.1-0.2,15.3-0.2c69.9,0,135.1,14.2,188.6,41l18.4,9.2L466.9,99
		c-2.8,21.1-5.6,40-8.3,58.3l0,0.2c-2.5,17-5.4,36.3-8.2,57.5c-1.1,8.1-2,16.3-2.9,24.7c-5.2,45.6-10.5,92.7-41.5,137.1
		c-20.5,29.3-48.2,53.4-80.1,70c-6.1,3.2-12.1,6.6-18.3,10.2l-3.5,2c-5.4,3.1-10.9,6.3-16.7,9.4l-0.3,0.2c-1.2,0.7-2.7,1.5-5.6,2.8
		c-2.6,1.4-14.4,9.2-24.1,15.7l-7.1,4.8L242.9,487.1z"/>
	<path d="M451.1,72.1l-4.1,30.8c-2.7,20.3-5.4,38.5-8,56.1c-2.6,17.5-5.3,35.5-8,55.6c-1.1,8-2,16.2-2.9,24.1
		c-4.8,42.4-9.8,86.3-37.9,126.6c-18.6,26.6-43.8,48.6-72.9,63.6c-6.6,3.4-12.8,7-19.4,10.8c-5.8,3.3-11.7,6.8-17.9,10.1
		c-0.9,0.5-1.9,1.1-5.2,2.5c-3.3,1.4-24.9,16.1-24.9,16.1s-21.7-14.9-25-16.4c-3.3-1.4-4.2-1.9-5.1-2.4c-6.2-3.3-12.2-6.8-17.9-10.1
		c-6.6-3.8-12.8-7.4-19.3-10.8c-29.1-15-54.2-37-72.9-63.6c-28.1-40.2-33.1-84.1-37.9-126.5c-0.9-7.9-1.8-16.1-2.9-24.1
		c-2.7-20.1-5.4-38.1-8-55.6c-2.6-17.6-5.3-35.8-8-56.1c-0.4-3.3-0.9-6.5-1.3-9.8c-0.4-3.3-0.9-6.6-1.3-9.9l-1.5-11.1l10-5
		c49.9-25,110.8-38.2,176.3-38.2c4.9,0,9.9,0.1,14.8,0.2c4.9-0.2,9.9-0.2,14.8-0.2c65.5,0,126.4,13.2,176.3,38.2L451.1,72.1z"/>
	<g>
		<g>
			<g>
				<linearGradient id="SVGID_2_" gradientUnits="userSpaceOnUse" x1="57.4364" y1="190.8671" x2="442.5671" y2="190.8671">
					<stop  offset="0" style="stop-color:#999999"/>
					<stop  offset="0.5" style="stop-color:#F2F2F2"/>
					<stop  offset="1" style="stop-color:#999999"/>
					<a:midPointStop  offset="0" style="stop-color:#999999"/>
					<a:midPointStop  offset="0.5" style="stop-color:#999999"/>
					<a:midPointStop  offset="0.5" style="stop-color:#F2F2F2"/>
					<a:midPointStop  offset="0.5" style="stop-color:#F2F2F2"/>
					<a:midPointStop  offset="1" style="stop-color:#999999"/>
				</linearGradient>
				<path fill="url(#SVGID_2_)" d="M442.6,77.7c-3.2,9.3-19.6,12.6-27.5,14.7c-13.1,3.6-26.2,7.1-39.4,10.7
					c-10.4,2.8-21.2,4.6-31.1,9.1c-3.6,1.7-9.9,4.3-12.3,7.6c-2.8,3.8-0.8,10.8-0.4,15.2c0.9,11.2-1.5,22.6-6.7,32.6
					c-3.8,7.3-8.5,12.2-14.2,16.9c-0.2-2.3-0.2-4-0.2-4c0.5-1.2,1.1-3.7,1.9-7c0.9-1.6,1.7-3.6,2.2-5.9c2-8.5,3.6-13.1,3.5-20.4
					c-0.1-7.3,1.9,9.1,0.6,13.8s-1.3,5-1.3,5s5.2-4.4,5.9-16.8c0,0,0.3-12-4.9-18.3c-4.3-5.2-8-7.2-11.6-7.7
					c-0.2-0.1-0.3-0.7-0.3-0.7l2.6-3.3h-2.7l1.6-0.8c-2.3-0.9-7,1.3-7,1.3c-1.8-1.2,7.5-2.8,7.5-2.8c-6-0.8-9.3,1-11.9,1.8
					c-2.6,0.9-1.9,2.8-1.9,2.8l-1.2,0.1l-15-21.6l11.5,23.8l-2.2,1.6c-2.7,2.2-11.4,8.1-12.7,8.8c-1.3,0.7-1,3.3-1,3.3
					c1.4,0,0.3,1.8,0.3,1.8c-0.5,1.6,0.5,2.2,0.5,2.2c1.8,2.4,5.7,1.2,5.7,1.2c2.4-2.3,5.3-2.2,5.3-2.2c3.6,1.6,8.9,0,8.9,0
					c-1.1,10.3-12.1,17.1-16.3,19.2c-4.2,2.1-4.4,6.5-4.7,8c-0.2,1.6-0.9,0.8-0.9,0.8c-1.3-1.2-4.4-3.7-8.3-6.2
					c-4-2.5-3.9-0.6-3.9-0.6l-1.2,1.1c-2.5-0.2-2.9,1.5-2.9,1.5l-0.5,7.1c0,0-0.6,1.9-2.5,6.5c-1.9,4.6-1,6.7-1,6.7
					s5.9,10.4,6.4,11.5c0.5,1.1,2.1,0.2,2.1,0.2s0,0.1,2.3,3.8c2.3,3.7,3.2,2.8,3.2,2.8c1.7-1.2,1.7-2.9,2.5-6.4
					c0.7-3.5-1.6-3.6-1.6-3.6s-0.1-0.4-2-0.4c-1.9,0-2.6-1.1-2.6-1.1s1.6-0.1,2.4-0.1c0.8,0,0.9-0.6,0.9-0.6l-3.1-3.7
					c0,0,0-8,1.5-8.3c1.5-0.3,2.5-1.2,2.5-1.2c2.5,2.9,6.8,4.4,6.8,4.4s0,0,4.6,12c4.6,12,20.5,27.6,21.3,28.6
					c0.7,1-0.7,4.3-0.7,4.3s-1.8,1.8-1,11.8c0.7,10,13.8,26.3,13.8,26.3c0.3,1.7-0.1,2.8,0.1,4.2c0,3.2,0.4,12.4-3.6,19.7
					c-2.4,4.5-5.3,8.7-7.9,12.9c-1.8,2.9-0.8,2.5-0.8,2.5l8.6-0.4l0.2-2.3l5.9,0.2c0,0,0-2.7,0.1-3.7c0.1-0.9,2.7-3.1,2.7-3.1
					l-0.4-2.1c-0.2-0.9-0.3-1.5-0.4-2c-0.1-0.3-0.2-0.9-0.4-1.9c0.3-3.6,2.9-10,3.8-12.4c0.7-2,1.3-17.5,1.3-17.5
					c-2.8-7,1.5-13.2,1.5-13.2c2.9-3.6,6.5-10.7,8.2-14.3l0,0.1c1.6,0.6,0.8,5.9,0.8,5.9c-2.3,5-3.1,11.7-3.1,11.7
					c-3.4,15.4,2.7,22.1,2.7,22.1c-2.8-9.9,1.5-13.1,1.5-13.1c-2.3,13.3,2.3,20.8,2.3,20.8c4.4,10,16.3,10.7,16.3,10.7
					c-8.8-2.2-10.8-9.5-10.9-9.9c1.9,3.8,6.4,4.4,12.2,6c5.7,1.6,2.9,5.5,2.8,5.8c1.3-1,0,1,1.8-3.2c1.8-4.2-6.2-11-10-15.8
					c-3.8-4.8-1.8-11.6-1.8-11.6c-0.4,15.4,15.4,20.8,15.4,20.8c-13.7-9.3-10.4-21.7-10.4-21.7c1.4-5.2,0-11.9-1.9-16.8
					c-1.5-3.9-4.2-7.2-6.7-10.5c-2.5-3.4-5.6-6.4-9-8.9c-0.3-0.2-0.1-3.9-0.1-4.4c-0.2-1.4-0.5-2.8-1.1-4c-0.4-1-1-2.3-1.9-3
					c0,0-6.2-8.4-10.7-13.3c-1.8-1.9-3.2-3.5-4.4-5c4.5,2.4,9.6,4,14.2,5.6c-1.6-0.8-2.9-2.1-3.9-3.6c-0.5-0.8-1.3-3.1-2-3.5
					c7.6,3.8,17.7,0,17.7,0c-2.6-0.9-5.2-2-7.7-3.2c-1.5-0.7-3.7-1.5-4.8-2.6c2.1,0.4,4,1.3,6.2,1.6c2,0.3,4.1,0.3,6.1,0.1
					c2.2-0.2,4.3-0.7,6.3-1.5c0.9-0.3,2-0.7,2.7-1.3c0.2-0.2,1-1.4,1.2-1.4c-5-0.7-9.6-2.9-14.2-4.9c4.4-0.1,8.9,0.5,13.4,0.2
					c2.3-0.2,4.6-0.4,6.8-0.8c1.7-0.3,4.8-0.4,6.1-1.4c-0.4-0.9-3.3-1.2-4.3-1.5c-1.5-0.5-3-1-4.5-1.8c-2.9-1.5-4.9-3.7-7.5-5.6
					c2,1.5,5.9,1.8,8.3,2c8.2,0.5,15.8-2.8,21.5-8.5c-4.1,4.1-21.5-5.7-21.5-5.7c21.5,5.7,33.4-7.6,31-6.7c-2.4,1-23.9-5.3-23.9-5.3
					c27.8,2.3,37-10.6,37.2-11c-10.5,4.3-28.4-1.9-28.4-1.9c18.5,1.7,43-15.1,47.3-18.1c-7.4,4.6-34.7,1.9-34.7,1.9
					C434.7,103.7,442.2,79.2,442.6,77.7z M259.4,185.8c-2-0.8-1.2-2.7-1.2-2.7l0.9,0.3l-0.9-0.9l0.6-5.4h1.2L259.4,185.8z"/>
			</g>
			<g>
				<linearGradient id="SVGID_3_" gradientUnits="userSpaceOnUse" x1="57.4364" y1="190.8671" x2="442.5671" y2="190.8671">
					<stop  offset="0" style="stop-color:#999999"/>
					<stop  offset="0.5" style="stop-color:#F2F2F2"/>
					<stop  offset="1" style="stop-color:#999999"/>
					<a:midPointStop  offset="0" style="stop-color:#999999"/>
					<a:midPointStop  offset="0.5" style="stop-color:#999999"/>
					<a:midPointStop  offset="0.5" style="stop-color:#F2F2F2"/>
					<a:midPointStop  offset="0.5" style="stop-color:#F2F2F2"/>
					<a:midPointStop  offset="1" style="stop-color:#999999"/>
				</linearGradient>
				<path fill="url(#SVGID_3_)" d="M116.1,115.2c0,0-27.3,2.7-34.7-1.9c4.3,3,28.9,19.9,47.3,18.1c0,0-17.9,6.2-28.4,1.9
					c0.3,0.4,9.4,13.3,37.2,11c0,0-21.5,6.2-23.9,5.3c-2.4-1,9.5,12.4,31,6.7c0,0-17.4,9.8-21.5,5.7c5.7,5.7,13.3,9,21.5,8.5
					c2.5-0.2,6.3-0.4,8.3-2c-2.5,1.9-4.6,4.1-7.5,5.6c-1.4,0.7-2.9,1.3-4.5,1.8c-1,0.3-3.9,0.7-4.3,1.5c1.3,1,4.4,1.1,6.1,1.4
					c2.3,0.4,4.6,0.6,6.8,0.8c4.5,0.3,9-0.4,13.4-0.2c-4.6,1.9-9.3,4.2-14.2,4.9c0.2,0,0.9,1.2,1.2,1.4c0.8,0.6,1.8,0.9,2.7,1.3
					c2,0.8,4.2,1.3,6.3,1.5c2,0.2,4.1,0.2,6.1-0.1c2.1-0.3,4.1-1.2,6.2-1.6c-1.2,1.1-3.3,1.9-4.8,2.6c-2.5,1.2-5,2.4-7.7,3.2
					c0,0,10,3.8,17.7,0c-0.7,0.4-1.5,2.8-2,3.5c-1,1.5-2.3,2.7-3.9,3.6c4.6-1.6,9.7-3.3,14.2-5.6c-1.2,1.5-2.6,3.1-4.4,5
					c-4.5,4.9-10.7,13.3-10.7,13.3c-0.9,0.7-1.5,2-1.9,3c-0.5,1.3-0.9,2.7-1.1,4c-0.1,0.5,0.2,4.2-0.1,4.4c-3.4,2.5-6.4,5.5-9,8.9
					c-2.5,3.3-5.1,6.6-6.7,10.5c-1.9,4.8-3.3,11.6-1.9,16.8c0,0,3.4,12.3-10.4,21.7c0,0,15.7-5.3,15.4-20.8c0,0,2,6.8-1.8,11.6
					c-3.8,4.8-11.8,11.6-10,15.8c1.8,4.2,0.5,2.2,1.8,3.2c-0.2-0.3-2.9-4.2,2.8-5.8c5.8-1.6,10.3-2.2,12.2-6
					c-0.1,0.5-2.1,7.7-10.9,9.9c0,0,11.9-0.7,16.3-10.7c0,0,4.6-7.5,2.3-20.8c0,0,4.4,3.2,1.5,13.1c0,0,6.1-6.7,2.7-22.1
					c0,0-0.8-6.7-3.1-11.7c0,0-0.8-5.3,0.8-5.9l0-0.1c1.7,3.6,5.3,10.7,8.2,14.3c0,0,4.3,6.2,1.5,13.2c0,0,0.5,15.5,1.3,17.5
					c0.9,2.4,3.4,8.9,3.8,12.4c-0.2,1.1-0.3,1.7-0.4,1.9c-0.1,0.4-0.2,1.1-0.4,2l-0.4,2.1c0,0,2.6,2.2,2.7,3.1
					c0.1,0.9,0.1,3.7,0.1,3.7l5.9-0.2l0.2,2.3l8.6,0.4c0,0,1,0.4-0.8-2.5c-2.6-4.2-5.5-8.4-7.9-12.9c-4-7.3-3.5-16.5-3.6-19.7
					c0.3-1.5-0.2-2.5,0.1-4.2c0,0,13.1-16.3,13.8-26.3c0.7-10-1-11.8-1-11.8s-1.5-3.2-0.7-4.3c0.7-1,16.7-16.7,21.3-28.6
					c4.6-12,4.6-12,4.6-12s4.3-1.5,6.8-4.4c0,0,1,0.9,2.5,1.2c1.5,0.3,1.5,8.3,1.5,8.3l-3.1,3.7c0,0,0.1,0.6,0.9,0.6
					c0.8,0,2.4,0.1,2.4,0.1s-0.7,1.1-2.6,1.1s-2,0.4-2,0.4s-2.4,0.1-1.6,3.6c0.7,3.5,0.7,5.2,2.5,6.4c0,0,0.9,1,3.2-2.8
					c2.3-3.7,2.3-3.8,2.3-3.8s1.6,1,2.1-0.2c0.5-1.1,6.4-11.5,6.4-11.5s1-2.1-1-6.7c-1.9-4.6-2.5-6.5-2.5-6.5l-0.5-7.1
					c0,0-0.4-1.7-2.9-1.5l-1.2-1.1c0,0,0-1.9-3.9,0.6c-4,2.5-7,5-8.3,6.2c0,0-0.6,0.8-0.9-0.8c-0.2-1.6-0.5-5.9-4.7-8
					c-4.2-2.1-15.2-8.8-16.3-19.2c0,0,5.2,1.6,8.9,0c0,0,2.8-0.1,5.3,2.2c0,0,3.8,1.2,5.7-1.2c0,0,1-0.7,0.5-2.2
					c0,0-1.1-1.8,0.3-1.8c0,0,0.4-2.5-1-3.3c-1.3-0.7-10.1-6.6-12.7-8.8l-2.2-1.6L221,99.9l-15,21.6l-1.2-0.1c0,0,0.7-1.9-1.9-2.7
					c-2.6-0.9-5.8-2.6-11.9-1.8c0,0,9.3,1.8,7.5,2.9c0,0-4.7-2.5-7-1.7l1.6,0.8h-2.7l2.6,3.3c0,0-0.1,0.3-0.3,0.4
					c-3.7,0.5-7.4,2.7-11.6,7.9c-5.2,6.3-4.9,18.4-4.9,18.4c0.7,12.3,5.9,16.8,5.9,16.8s0-0.3-1.3-5c-1.3-4.7,0.7-21.1,0.6-13.8
					c-0.1,7.3,1.6,12,3.5,20.5c0.5,2.3,1.3,4.3,2.2,5.9c0.8,3.3,1.5,5.8,1.9,7c0,0,0.1,1.7-0.2,4c-5.6-4.6-10.4-9.5-14.2-16.9
					c-5.2-10-7.6-21.4-6.7-32.6c0.4-4.4,2.4-11.4-0.4-15.2c-2.4-3.3-8.7-6-12.3-7.6c-9.9-4.5-20.7-6.3-31.1-9.1
					C111.2,99.5,98,96,84.9,92.4C77,90.2,60.6,87,57.4,77.7C57.8,79.2,65.3,103.7,116.1,115.2z M240.1,177h1.2l0.6,5.4l-0.9,0.9
					l0.9-0.3c0,0,0.8,2-1.2,2.7L240.1,177z"/>
			</g>
		</g>
	</g>
	<g>
		<linearGradient id="SVGID_4_" gradientUnits="userSpaceOnUse" x1="255.6734" y1="354.3851" x2="268.2015" y2="354.3851">
			<stop  offset="0" style="stop-color:#999999"/>
			<stop  offset="0.5" style="stop-color:#F2F2F2"/>
			<stop  offset="1" style="stop-color:#999999"/>
			<a:midPointStop  offset="0" style="stop-color:#999999"/>
			<a:midPointStop  offset="0.5" style="stop-color:#999999"/>
			<a:midPointStop  offset="0.5" style="stop-color:#F2F2F2"/>
			<a:midPointStop  offset="0.5" style="stop-color:#F2F2F2"/>
			<a:midPointStop  offset="1" style="stop-color:#999999"/>
		</linearGradient>
		<path fill="url(#SVGID_4_)" d="M259.3,367.9l5.7-26.5c-1.2,0.1-2.6,0.5-3.8,0.9l0.3-1.3c1.1-0.7,2.3-1.2,3.4-1.9h3.4l-6.1,28.8
			c0.9,0.3,2.2,0.5,3.1,0.8l-0.2,0.9h-9.4l0.2-0.9L259.3,367.9z"/>
		<linearGradient id="SVGID_5_" gradientUnits="userSpaceOnUse" x1="270.6301" y1="354.4056" x2="295.1729" y2="354.4056">
			<stop  offset="0" style="stop-color:#999999"/>
			<stop  offset="0.5" style="stop-color:#F2F2F2"/>
			<stop  offset="1" style="stop-color:#999999"/>
			<a:midPointStop  offset="0" style="stop-color:#999999"/>
			<a:midPointStop  offset="0.5" style="stop-color:#999999"/>
			<a:midPointStop  offset="0.5" style="stop-color:#F2F2F2"/>
			<a:midPointStop  offset="0.5" style="stop-color:#F2F2F2"/>
			<a:midPointStop  offset="1" style="stop-color:#999999"/>
		</linearGradient>
		<path fill="url(#SVGID_5_)" d="M291,364.3h0.9l-0.7,5.4h-20.5c1.9-8.3,7.6-11.9,14.5-15.1c4.2-2,6.5-4.6,7.2-7.4
			c0.5-3-0.8-5.7-5.5-6c-4.2,0-7,2.6-8,3.6c-0.4,1-0.7,1.8-1.2,2.8h-0.9l0.6-4.4c0.5-0.5,4.9-4,9.8-4c6.5,0,8.8,3.6,7.9,7.9
			c-0.9,4-3.9,7.4-9.6,9.9c-4.9,2.3-9.4,5.4-10.8,10.6h14.9L291,364.3z"/>
		<linearGradient id="SVGID_6_" gradientUnits="userSpaceOnUse" x1="169.3787" y1="398.281" x2="196.4058" y2="398.281">
			<stop  offset="0" style="stop-color:#999999"/>
			<stop  offset="0.5" style="stop-color:#F2F2F2"/>
			<stop  offset="1" style="stop-color:#999999"/>
			<a:midPointStop  offset="0" style="stop-color:#999999"/>
			<a:midPointStop  offset="0.5" style="stop-color:#999999"/>
			<a:midPointStop  offset="0.5" style="stop-color:#F2F2F2"/>
			<a:midPointStop  offset="0.5" style="stop-color:#F2F2F2"/>
			<a:midPointStop  offset="1" style="stop-color:#999999"/>
		</linearGradient>
		<path fill="url(#SVGID_6_)" d="M194.1,385.1h-12.8l-2.6,12.1h10.9l-0.4,1.8h-10.9l-2.6,12.5h14.2l1.4-3.2h0.8l-1,5h-21.6l0.2-0.9
			l3.4-0.8l5.7-26.7l-3.1-0.8l0.2-0.9h20.7l-1.7,5.9h-0.8L194.1,385.1z"/>
		<linearGradient id="SVGID_7_" gradientUnits="userSpaceOnUse" x1="191.2716" y1="360.5" x2="278.0041" y2="360.5">
			<stop  offset="0" style="stop-color:#999999"/>
			<stop  offset="0.5" style="stop-color:#F2F2F2"/>
			<stop  offset="1" style="stop-color:#999999"/>
			<a:midPointStop  offset="0" style="stop-color:#999999"/>
			<a:midPointStop  offset="0.5" style="stop-color:#999999"/>
			<a:midPointStop  offset="0.5" style="stop-color:#F2F2F2"/>
			<a:midPointStop  offset="0.5" style="stop-color:#F2F2F2"/>
			<a:midPointStop  offset="1" style="stop-color:#999999"/>
		</linearGradient>
		<polygon fill="url(#SVGID_7_)" points="278,309 277.6,311 271.3,312.4 247.9,352.5 246.1,356.1 237.9,369.3 212.7,412 205.6,412 
			196.9,355.5 191.3,354.4 191.7,354 209.6,354 209.2,355.1 202.6,356 210.1,409.7 230.6,373.6 221.3,312.9 215.7,311 216.1,309 
			234,309 233.5,311.1 225.5,312.4 231.5,366.4 231.5,366.4 240.8,352.8 264.4,312.9 259.5,311 260.2,309 		"/>
		<linearGradient id="SVGID_8_" gradientUnits="userSpaceOnUse" x1="227.9296" y1="397.4422" x2="254.9567" y2="397.4422">
			<stop  offset="0" style="stop-color:#999999"/>
			<stop  offset="0.5" style="stop-color:#F2F2F2"/>
			<stop  offset="1" style="stop-color:#999999"/>
			<a:midPointStop  offset="0" style="stop-color:#999999"/>
			<a:midPointStop  offset="0.5" style="stop-color:#999999"/>
			<a:midPointStop  offset="0.5" style="stop-color:#F2F2F2"/>
			<a:midPointStop  offset="0.5" style="stop-color:#F2F2F2"/>
			<a:midPointStop  offset="1" style="stop-color:#999999"/>
		</linearGradient>
		<path fill="url(#SVGID_8_)" d="M252.7,384.2h-12.8l-2.6,12.1h10.9l-0.4,1.8h-10.9l-2.6,12.5h14.2l1.4-3.2h0.8l-1,5h-21.6l0.2-0.9
			l3.4-0.8l5.7-26.7l-3.1-0.8l0.2-0.9H255l-1.7,5.9h-0.8L252.7,384.2z"/>
		<linearGradient id="SVGID_9_" gradientUnits="userSpaceOnUse" x1="252.356" y1="397.4209" x2="288.7274" y2="397.4209">
			<stop  offset="0" style="stop-color:#999999"/>
			<stop  offset="0.5" style="stop-color:#F2F2F2"/>
			<stop  offset="1" style="stop-color:#999999"/>
			<a:midPointStop  offset="0" style="stop-color:#999999"/>
			<a:midPointStop  offset="0.5" style="stop-color:#999999"/>
			<a:midPointStop  offset="0.5" style="stop-color:#F2F2F2"/>
			<a:midPointStop  offset="0.5" style="stop-color:#F2F2F2"/>
			<a:midPointStop  offset="1" style="stop-color:#999999"/>
		</linearGradient>
		<path fill="url(#SVGID_9_)" d="M285.1,384.1l-5.7,26.8l3.1,0.7l-0.2,0.9h-6.5l-11.7-27.4l-5.5,25.7c1,0.2,2.2,0.5,3.1,0.8
			c-0.1,0.5-0.1,0.6-0.1,0.9h-9.4c0-0.3,0.2-0.6,0.2-0.9l3.4-0.8l5.7-26.7l-3.1-0.8l0.2-0.9h6.8l11.4,26.8l5.7-26.8h6l-0.2,0.9
			L285.1,384.1z"/>
		<linearGradient id="SVGID_10_" gradientUnits="userSpaceOnUse" x1="289.1451" y1="397.4209" x2="315.3334" y2="397.4209">
			<stop  offset="0" style="stop-color:#999999"/>
			<stop  offset="0.5" style="stop-color:#F2F2F2"/>
			<stop  offset="1" style="stop-color:#999999"/>
			<a:midPointStop  offset="0" style="stop-color:#999999"/>
			<a:midPointStop  offset="0.5" style="stop-color:#999999"/>
			<a:midPointStop  offset="0.5" style="stop-color:#F2F2F2"/>
			<a:midPointStop  offset="0.5" style="stop-color:#F2F2F2"/>
			<a:midPointStop  offset="1" style="stop-color:#999999"/>
		</linearGradient>
		<path fill="url(#SVGID_10_)" d="M312.9,384.2h-9.1l-5.7,26.6l3.1,0.8l-0.2,0.9h-9.3l0.2-0.9l3.5-0.8l5.7-26.6h-9.5l-1.5,3.2h-0.9
			l0.7-5h25.5l-1.5,5h-0.9L312.9,384.2z"/>
		<linearGradient id="SVGID_11_" gradientUnits="userSpaceOnUse" x1="312.2715" y1="397.5257" x2="337.8733" y2="397.5257">
			<stop  offset="0" style="stop-color:#999999"/>
			<stop  offset="0.5" style="stop-color:#F2F2F2"/>
			<stop  offset="1" style="stop-color:#999999"/>
			<a:midPointStop  offset="0" style="stop-color:#999999"/>
			<a:midPointStop  offset="0.5" style="stop-color:#999999"/>
			<a:midPointStop  offset="0.5" style="stop-color:#F2F2F2"/>
			<a:midPointStop  offset="0.5" style="stop-color:#F2F2F2"/>
			<a:midPointStop  offset="1" style="stop-color:#999999"/>
		</linearGradient>
		<path fill="url(#SVGID_11_)" d="M314.2,409c1.9,1.3,4.4,2.3,7.5,2.3c4.6,0,8.7-2.6,9.4-5.9c0.3-1.9,0.8-5.3-6.2-7.2
			c-5.9-1.8-9.1-4.1-8-8.8c0.8-3.9,5.2-7.5,12-7.5c5.7,0,7.7,0.7,9.1,1.7l-1.2,4.4h-0.9l-0.1-3c-2.7-1.3-4.9-1.5-7.2-1.5
			c-3.8,0-7.6,2.3-8.4,5.9c-0.8,3.7,1.3,5,5.2,6.2c4.3,1.3,10.3,3.4,8.9,9.7c-1.5,6.6-9,8-13,8c-4.9,0-7.7-1.4-8.9-2.4l0.9-4.9h0.8
			L314.2,409z"/>
	</g>
</g>
</svg>
