<svg xmlns:x="http://ns.adobe.com/Extensibility/1.0/" xmlns:i="http://ns.adobe.com/AdobeIllustrator/10.0/" xmlns:graph="http://ns.adobe.com/Graphs/1.0/" xmlns="http://www.w3.org/2000/svg" xmlns:xlink="http://www.w3.org/1999/xlink" xmlns:a="http://ns.adobe.com/AdobeSVGViewerExtensions/3.0/" version="1.1" id="Layer_1" x="0" y="0" width="300" height="150" viewBox="0 0 300 150" enable-background="new 0 0 300 150" xml:space="preserve">
  <rect x="-353.5" y="-338" display="none" fill="#455A64" width="1365" height="851"/>
  <linearGradient id="SVGID_1_" gradientUnits="userSpaceOnUse" x1="4.35" y1="75" x2="132.86" y2="75">
    <stop offset="0" stop-color="#999999"/>
    <stop offset="0.5" stop-color="#F2F2F2"/>
    <stop offset="1" stop-color="#999999"/>
    <a:midPointStop offset="0" stop-color="#999999"/>
    <a:midPointStop offset="0.5" stop-color="#999999"/>
    <a:midPointStop offset="0.5" stop-color="#F2F2F2"/>
    <a:midPointStop offset="0.5" stop-color="#F2F2F2"/>
    <a:midPointStop offset="1" stop-color="#999999"/>
  </linearGradient>
  <path fill="url(#SVGID_1_)" stroke="#000000" stroke-width="3" stroke-miterlimit="10" d="M66.6 143.5c-2.8-1.9-6.2-4.2-7-4.6 -1-0.4-1.4-0.6-1.7-0.8 -1.9-1-3.6-2-5.3-3l-0.3-0.2c-1.9-1.1-3.6-2.1-5.5-3.1 -9.2-4.8-17.2-11.8-23.2-20.2 -9-12.8-10.5-26.4-12-39.6 -0.3-2.4-0.5-4.8-0.9-7.2 -0.8-5.9-1.6-11.3-2.4-16.5l0-0.3c-0.8-5.2-1.6-10.7-2.4-16.7 -0.1-0.7-0.2-1.3-0.3-2l-0.2-1.1c-0.1-0.9-0.3-1.9-0.4-2.8l-0.8-5.9 5.3-2.7C25.1 9.2 44 5.1 64.2 5.1c1.5 0 3 0 4.4 0.1 1.4 0 2.9-0.1 4.4-0.1 20.2 0 39.1 4.1 54.5 11.9l5.3 2.7 -1.6 11.8c-0.8 6.1-1.6 11.6-2.4 16.9l0 0c-0.7 4.9-1.6 10.5-2.4 16.6 -0.3 2.4-0.6 4.7-0.9 7.2 -1.5 13.2-3 26.8-12 39.6 -5.9 8.5-13.9 15.5-23.2 20.2 -1.8 0.9-3.5 1.9-5.3 3l-1 0.6c-1.5 0.9-3.1 1.8-4.8 2.7l-0.1 0.1c-0.4 0.2-0.8 0.4-1.6 0.8 -0.7 0.4-4.2 2.7-7 4.6l-2 1.4L66.6 143.5z"/>
  <path d="M126.7 23.6l-1.2 8.9c-0.8 5.9-1.6 11.1-2.3 16.2 -0.8 5.1-1.5 10.3-2.3 16.1 -0.3 2.3-0.6 4.7-0.8 7 -1.4 12.3-2.8 25-11 36.6 -5.4 7.7-12.7 14-21.1 18.4 -1.9 1-3.7 2-5.6 3.1 -1.7 1-3.4 2-5.2 2.9 -0.3 0.1-0.5 0.3-1.5 0.7 -0.9 0.4-7.2 4.7-7.2 4.7s-6.3-4.3-7.2-4.7c-0.9-0.4-1.2-0.6-1.5-0.7 -1.8-1-3.5-2-5.2-2.9 -1.9-1.1-3.7-2.1-5.6-3.1 -8.4-4.3-15.7-10.7-21.1-18.4 -8.1-11.6-9.6-24.3-11-36.6 -0.3-2.3-0.5-4.6-0.8-7 -0.8-5.8-1.5-11-2.3-16.1 -0.8-5.1-1.5-10.4-2.3-16.2 -0.1-0.9-0.3-1.9-0.4-2.8 -0.1-1-0.3-1.9-0.4-2.9l-0.4-3.2 2.9-1.4c14.4-7.2 32-11.1 51-11.1 1.4 0 2.9 0 4.3 0.1 1.4 0 2.9-0.1 4.3-0.1 18.9 0 36.6 3.8 51 11.1L126.7 23.6z"/>
  <linearGradient id="SVGID_2_" gradientUnits="userSpaceOnUse" x1="12.94" y1="57.9" x2="124.28" y2="57.9">
    <stop offset="0" stop-color="#999999"/>
    <stop offset="0.5" stop-color="#F2F2F2"/>
    <stop offset="1" stop-color="#999999"/>
    <a:midPointStop offset="0" stop-color="#999999"/>
    <a:midPointStop offset="0.5" stop-color="#999999"/>
    <a:midPointStop offset="0.5" stop-color="#F2F2F2"/>
    <a:midPointStop offset="0.5" stop-color="#F2F2F2"/>
    <a:midPointStop offset="1" stop-color="#999999"/>
  </linearGradient>
  <path fill="url(#SVGID_2_)" d="M124.3 25.2c-0.9 2.7-5.7 3.6-7.9 4.3 -3.8 1-7.6 2.1-11.4 3.1 -3 0.8-6.1 1.3-9 2.6 -1.1 0.5-2.8 1.2-3.6 2.2 -0.8 1.1-0.2 3.1-0.1 4.4 0.3 3.2-0.4 6.5-1.9 9.4 -1.1 2.1-2.5 3.5-4.1 4.9 -0.1-0.7 0-1.2 0-1.2 0.1-0.4 0.3-1.1 0.6-2 0.2-0.5 0.5-1 0.6-1.7 0.6-2.5 1-3.8 1-5.9 0-2.1 0.6 2.6 0.2 4 -0.4 1.3-0.4 1.5-0.4 1.5s1.5-1.3 1.7-4.8c0 0 0.1-3.5-1.4-5.3 -1.2-1.5-2.3-2.1-3.4-2.2 0 0-0.1-0.3-0.1-0.3l0.7-1H85l0.5-0.2c-0.7-0.3-2 0.4-2 0.4 -0.5-0.3 2.2-0.8 2.2-0.8 -1.7-0.2-2.7 0.3-3.4 0.5 -0.7 0.3-0.5 0.8-0.5 0.8l-0.4 0L77 31.6l3.3 6.9 -0.6 0.5c-0.8 0.6-3.3 2.3-3.7 2.5 -0.4 0.2-0.3 0.9-0.3 0.9 0.4 0 0.1 0.5 0.1 0.5 -0.1 0.4 0.1 0.6 0.1 0.6 0.5 0.7 1.6 0.3 1.6 0.3 0.7-0.7 1.5-0.6 1.5-0.6 1 0.5 2.6 0 2.6 0 -0.3 3-3.5 4.9-4.7 5.5 -1.2 0.6-1.3 1.9-1.3 2.3 -0.1 0.5-0.2 0.2-0.2 0.2 -0.4-0.3-1.3-1.1-2.4-1.8 -1.2-0.7-1.1-0.2-1.1-0.2l-0.3 0.3c-0.7-0.1-0.8 0.4-0.8 0.4l-0.1 2c0 0-0.2 0.6-0.7 1.9 -0.6 1.3-0.3 1.9-0.3 1.9s1.7 3 1.9 3.3 0.6 0 0.6 0 0 0 0.7 1.1c0.7 1.1 0.9 0.8 0.9 0.8 0.5-0.3 0.5-0.8 0.7-1.9 0.2-1-0.5-1-0.5-1s0-0.1-0.6-0.1c-0.5 0-0.7-0.3-0.7-0.3s0.5 0 0.7 0c0.2 0 0.3-0.2 0.3-0.2l-0.9-1.1c0 0 0-2.3 0.4-2.4 0.4-0.1 0.7-0.3 0.7-0.3 0.7 0.9 2 1.3 2 1.3s0 0 1.3 3.5c1.3 3.5 5.9 8 6.1 8.3 0.2 0.3-0.2 1.2-0.2 1.2s-0.5 0.5-0.3 3.4c0.2 2.9 4 7.6 4 7.6 0.1 0.5 0 0.8 0 1.2 0 0.9 0.1 3.6-1 5.7 -0.7 1.3-1.5 2.5-2.3 3.7 -0.5 0.9-0.2 0.7-0.2 0.7l2.5-0.1 0.1-0.7 1.7 0c0 0 0-0.8 0-1.1 0-0.3 0.8-0.9 0.8-0.9L88 87.3c-0.1-0.3-0.1-0.4-0.1-0.6 0-0.1-0.1-0.2-0.1-0.6 0.1-1 0.8-2.9 1.1-3.6 0.2-0.6 0.4-5.1 0.4-5.1 -0.8-2 0.4-3.8 0.4-3.8 0.8-1.1 1.9-3.1 2.4-4.1l0 0c0.5 0.2 0.2 1.7 0.2 1.7 -0.7 1.4-0.9 3.4-0.9 3.4 -1 4.5 0.8 6.4 0.8 6.4 -0.8-2.9 0.4-3.8 0.4-3.8 -0.7 3.8 0.7 6 0.7 6 1.3 2.9 4.7 3.1 4.7 3.1 -2.5-0.6-3.1-2.7-3.2-2.9 0.6 1.1 1.8 1.3 3.5 1.7 1.6 0.4 0.9 1.6 0.8 1.7 0.4-0.3 0 0.3 0.5-0.9 0.5-1.2-1.8-3.2-2.9-4.6 -1.1-1.4-0.5-3.4-0.5-3.4 -0.1 4.5 4.4 6 4.4 6 -4-2.7-3-6.3-3-6.3 0.4-1.5 0-3.5-0.6-4.8 -0.4-1.1-1.2-2.1-1.9-3 -0.7-1-1.6-1.8-2.6-2.6 -0.1-0.1 0-1.1 0-1.3 -0.1-0.4-0.2-0.8-0.3-1.2 -0.1-0.3-0.3-0.7-0.5-0.9 0 0-1.8-2.4-3.1-3.8 -0.5-0.5-0.9-1-1.3-1.5 1.3 0.7 2.8 1.2 4.1 1.6 -0.5-0.2-0.8-0.6-1.1-1 -0.1-0.2-0.4-0.9-0.6-1 2.2 1.1 5.1 0 5.1 0 -0.8-0.3-1.5-0.6-2.2-0.9 -0.4-0.2-1.1-0.4-1.4-0.8 0.6 0.1 1.2 0.4 1.8 0.5 0.6 0.1 1.2 0.1 1.8 0 0.6-0.1 1.2-0.2 1.8-0.4 0.3-0.1 0.6-0.2 0.8-0.4 0.1-0.1 0.3-0.4 0.3-0.4 -1.4-0.2-2.8-0.8-4.1-1.4 1.3 0 2.6 0.2 3.9 0.1 0.7 0 1.3-0.1 2-0.2 0.5-0.1 1.4-0.1 1.8-0.4 -0.1-0.3-1-0.4-1.2-0.4 -0.4-0.1-0.9-0.3-1.3-0.5 -0.8-0.4-1.4-1.1-2.2-1.6 0.6 0.4 1.7 0.5 2.4 0.6 2.4 0.1 4.6-0.8 6.2-2.5 -1.2 1.2-6.2-1.7-6.2-1.7 6.2 1.7 9.7-2.2 9-1.9 -0.7 0.3-6.9-1.5-6.9-1.5 8 0.7 10.7-3.1 10.8-3.2 -3 1.2-8.2-0.6-8.2-0.6 5.3 0.5 12.4-4.4 13.7-5.2 -2.1 1.3-10 0.6-10 0.6C122 32.7 124.2 25.6 124.3 25.2zM71.3 56.5c-0.6-0.2-0.4-0.8-0.4-0.8l0.3 0.1L71 55.5l0.2-1.5h0.3L71.3 56.5z"/>
  <linearGradient id="SVGID_3_" gradientUnits="userSpaceOnUse" x1="12.94" y1="57.9" x2="124.28" y2="57.9">
    <stop offset="0" stop-color="#999999"/>
    <stop offset="0.5" stop-color="#F2F2F2"/>
    <stop offset="1" stop-color="#999999"/>
    <a:midPointStop offset="0" stop-color="#999999"/>
    <a:midPointStop offset="0.5" stop-color="#999999"/>
    <a:midPointStop offset="0.5" stop-color="#F2F2F2"/>
    <a:midPointStop offset="0.5" stop-color="#F2F2F2"/>
    <a:midPointStop offset="1" stop-color="#999999"/>
  </linearGradient>
  <path fill="url(#SVGID_3_)" d="M29.9 36c0 0-7.9 0.8-10-0.6 1.2 0.9 8.3 5.7 13.7 5.2 0 0-5.2 1.8-8.2 0.6 0.1 0.1 2.7 3.8 10.8 3.2 0 0-6.2 1.8-6.9 1.5 -0.7-0.3 2.8 3.6 9 1.9 0 0-5 2.8-6.2 1.7 1.6 1.6 3.9 2.6 6.2 2.5 0.7 0 1.8-0.1 2.4-0.6 -0.7 0.6-1.3 1.2-2.2 1.6 -0.4 0.2-0.8 0.4-1.3 0.5 -0.3 0.1-1.1 0.2-1.2 0.4 0.4 0.3 1.3 0.3 1.8 0.4 0.7 0.1 1.3 0.2 2 0.2 1.3 0.1 2.6-0.1 3.9-0.1 -1.3 0.6-2.7 1.2-4.1 1.4 0.1 0 0.3 0.3 0.3 0.4 0.2 0.2 0.5 0.3 0.8 0.4 0.6 0.2 1.2 0.4 1.8 0.4 0.6 0.1 1.2 0 1.8 0 0.6-0.1 1.2-0.4 1.8-0.5 -0.3 0.3-1 0.5-1.4 0.8 -0.7 0.4-1.5 0.7-2.2 0.9 0 0 2.9 1.1 5.1 0 -0.2 0.1-0.4 0.8-0.6 1 -0.3 0.4-0.7 0.8-1.1 1 1.3-0.5 2.8-0.9 4.1-1.6 -0.3 0.4-0.8 0.9-1.3 1.5 -1.3 1.4-3.1 3.8-3.1 3.8 -0.3 0.2-0.4 0.6-0.5 0.9 -0.2 0.4-0.3 0.8-0.3 1.2 0 0.1 0 1.2 0 1.3 -1 0.7-1.9 1.6-2.6 2.6 -0.7 0.9-1.5 1.9-1.9 3 -0.6 1.4-0.9 3.4-0.6 4.8 0 0 1 3.6-3 6.3 0 0 4.5-1.5 4.4-6 0 0 0.6 2-0.5 3.4 -1.1 1.4-3.4 3.4-2.9 4.6 0.5 1.2 0.1 0.6 0.5 0.9 -0.1-0.1-0.8-1.2 0.8-1.7 1.7-0.5 3-0.6 3.5-1.7 0 0.1-0.6 2.2-3.2 2.9 0 0 3.4-0.2 4.7-3.1 0 0 1.3-2.2 0.7-6 0 0 1.3 0.9 0.4 3.8 0 0 1.8-1.9 0.8-6.4 0 0-0.2-2-0.9-3.4 0 0-0.2-1.5 0.2-1.7l0 0c0.5 1 1.5 3.1 2.4 4.1 0 0 1.2 1.8 0.4 3.8 0 0 0.2 4.5 0.4 5.1 0.3 0.7 1 2.6 1.1 3.6 -0.1 0.3-0.1 0.5-0.1 0.6 0 0.1-0.1 0.3-0.1 0.6l-0.1 0.6c0 0 0.7 0.6 0.8 0.9 0 0.3 0 1.1 0 1.1l1.7 0 0.1 0.7 2.5 0.1c0 0 0.3 0.1-0.2-0.7 -0.8-1.2-1.6-2.4-2.3-3.7 -1.2-2.1-1-4.8-1-5.7 0.1-0.4-0.1-0.7 0-1.2 0 0 3.8-4.7 4-7.6 0.2-2.9-0.3-3.4-0.3-3.4s-0.4-0.9-0.2-1.2c0.2-0.3 4.8-4.8 6.1-8.3 1.3-3.5 1.3-3.5 1.3-3.5s1.2-0.4 2-1.3c0 0 0.3 0.3 0.7 0.3 0.4 0.1 0.4 2.4 0.4 2.4l-0.9 1.1c0 0 0 0.2 0.3 0.2 0.2 0 0.7 0 0.7 0s-0.2 0.3-0.7 0.3 -0.6 0.1-0.6 0.1 -0.7 0-0.5 1c0.2 1 0.2 1.5 0.7 1.9 0 0 0.3 0.3 0.9-0.8 0.7-1.1 0.7-1.1 0.7-1.1s0.5 0.3 0.6 0C66 59 67.7 56 67.7 56s0.3-0.6-0.3-1.9c-0.6-1.3-0.7-1.9-0.7-1.9l-0.1-2c0 0-0.1-0.5-0.8-0.4l-0.3-0.3c0 0 0-0.5-1.1 0.2 -1.2 0.7-2 1.5-2.4 1.8 0 0-0.2 0.2-0.2-0.2 -0.1-0.5-0.1-1.7-1.3-2.3 -1.2-0.6-4.4-2.6-4.7-5.5 0 0 1.5 0.5 2.6 0 0 0 0.8 0 1.5 0.6 0 0 1.1 0.3 1.6-0.3 0 0 0.3-0.2 0.1-0.6 0 0-0.3-0.5 0.1-0.5 0 0 0.1-0.7-0.3-0.9 -0.4-0.2-2.9-1.9-3.7-2.5l-0.6-0.5 3.3-6.9 -4.3 6.3 -0.4 0c0 0 0.2-0.5-0.5-0.8 -0.7-0.3-1.7-0.7-3.4-0.5 0 0 2.7 0.5 2.2 0.8 0 0-1.4-0.8-2-0.5l0.5 0.2h-0.8l0.7 1c0 0 0 0.1-0.1 0.1 -1.1 0.2-2.1 0.8-3.4 2.3 -1.5 1.8-1.4 5.3-1.4 5.3 0.2 3.6 1.7 4.9 1.7 4.9s0-0.1-0.4-1.4c-0.4-1.3 0.2-6.1 0.2-4 0 2.1 0.4 3.5 1 5.9 0.2 0.7 0.4 1.2 0.6 1.7 0.2 1 0.4 1.7 0.6 2 0 0 0 0.5 0 1.2 -1.6-1.3-3-2.8-4.1-4.9 -1.5-2.9-2.2-6.2-1.9-9.4 0.1-1.3 0.7-3.3-0.1-4.4 -0.7-1-2.5-1.7-3.6-2.2 -2.9-1.3-6-1.8-9-2.6 -3.8-1-7.6-2.1-11.4-3.1 -2.3-0.6-7-1.6-7.9-4.3C13.1 25.6 15.2 32.7 29.9 36zM65.7 54h0.3l0.2 1.5L66 55.8l0.3-0.1c0 0 0.2 0.6-0.4 0.8L65.7 54z"/>
  <linearGradient id="SVGID_4_" gradientUnits="userSpaceOnUse" x1="70.25" y1="105.18" x2="73.87" y2="105.18">
    <stop offset="0" stop-color="#999999"/>
    <stop offset="0.5" stop-color="#F2F2F2"/>
    <stop offset="1" stop-color="#999999"/>
    <a:midPointStop offset="0" stop-color="#999999"/>
    <a:midPointStop offset="0.5" stop-color="#999999"/>
    <a:midPointStop offset="0.5" stop-color="#F2F2F2"/>
    <a:midPointStop offset="0.5" stop-color="#F2F2F2"/>
    <a:midPointStop offset="1" stop-color="#999999"/>
  </linearGradient>
  <path fill="url(#SVGID_4_)" d="M71.3 109.1l1.6-7.7c-0.4 0-0.8 0.1-1.1 0.3l0.1-0.4c0.3-0.2 0.7-0.3 1-0.5h1l-1.8 8.3c0.3 0.1 0.6 0.1 0.9 0.2l0 0.3h-2.7l0-0.3L71.3 109.1z"/>
  <linearGradient id="SVGID_5_" gradientUnits="userSpaceOnUse" x1="74.57" y1="105.18" x2="81.67" y2="105.18">
    <stop offset="0" stop-color="#999999"/>
    <stop offset="0.5" stop-color="#F2F2F2"/>
    <stop offset="1" stop-color="#999999"/>
    <a:midPointStop offset="0" stop-color="#999999"/>
    <a:midPointStop offset="0.5" stop-color="#999999"/>
    <a:midPointStop offset="0.5" stop-color="#F2F2F2"/>
    <a:midPointStop offset="0.5" stop-color="#F2F2F2"/>
    <a:midPointStop offset="1" stop-color="#999999"/>
  </linearGradient>
  <path fill="url(#SVGID_5_)" d="M80.4 108h0.3l-0.2 1.6h-5.9c0.5-2.4 2.2-3.4 4.2-4.4 1.2-0.6 1.9-1.3 2.1-2.1 0.2-0.9-0.2-1.7-1.6-1.7 -1.2 0-2 0.8-2.3 1.1 -0.1 0.3-0.2 0.5-0.3 0.8h-0.3l0.2-1.3c0.1-0.1 1.4-1.2 2.8-1.2 1.9 0 2.5 1.1 2.3 2.3 -0.3 1.2-1.1 2.1-2.8 2.9 -1.4 0.7-2.7 1.6-3.1 3.1H80L80.4 108z"/>
  <linearGradient id="SVGID_6_" gradientUnits="userSpaceOnUse" x1="45.3" y1="117.87" x2="53.11" y2="117.87">
    <stop offset="0" stop-color="#999999"/>
    <stop offset="0.5" stop-color="#F2F2F2"/>
    <stop offset="1" stop-color="#999999"/>
    <a:midPointStop offset="0" stop-color="#999999"/>
    <a:midPointStop offset="0.5" stop-color="#999999"/>
    <a:midPointStop offset="0.5" stop-color="#F2F2F2"/>
    <a:midPointStop offset="0.5" stop-color="#F2F2F2"/>
    <a:midPointStop offset="1" stop-color="#999999"/>
  </linearGradient>
  <path fill="url(#SVGID_6_)" d="M52.4 114h-3.7l-0.8 3.5h3.1l-0.1 0.5h-3.1l-0.8 3.6h4.1l0.4-0.9h0.2l-0.3 1.5h-6.3l0-0.3 1-0.2L48 114l-0.9-0.2 0-0.3h6l-0.5 1.7h-0.2L52.4 114z"/>
  <linearGradient id="SVGID_7_" gradientUnits="userSpaceOnUse" x1="51.63" y1="107" x2="76.7" y2="107">
    <stop offset="0" stop-color="#999999"/>
    <stop offset="0.5" stop-color="#F2F2F2"/>
    <stop offset="1" stop-color="#999999"/>
    <a:midPointStop offset="0" stop-color="#999999"/>
    <a:midPointStop offset="0.5" stop-color="#999999"/>
    <a:midPointStop offset="0.5" stop-color="#F2F2F2"/>
    <a:midPointStop offset="0.5" stop-color="#F2F2F2"/>
    <a:midPointStop offset="1" stop-color="#999999"/>
  </linearGradient>
  <polygon fill="url(#SVGID_7_)" points="76.7 92 76.6 92.6 74.8 93 68 104.6 67.5 105.7 65.1 109.6 57.8 122 55.8 122 53.3 105.6 51.6 105.2 51.7 105 56.9 105 56.8 105.3 54.9 105.6 57.1 121.2 63 110.7 60.3 93.2 58.7 92.6 58.8 92 64 92 63.8 92.6 61.6 93 63.5 108.7 63.5 108.7 66.1 104.7 72.8 93.2 71.4 92.6 71.6 92 "/>
  <linearGradient id="SVGID_8_" gradientUnits="userSpaceOnUse" x1="62.23" y1="117.63" x2="70.04" y2="117.63">
    <stop offset="0" stop-color="#999999"/>
    <stop offset="0.5" stop-color="#F2F2F2"/>
    <stop offset="1" stop-color="#999999"/>
    <a:midPointStop offset="0" stop-color="#999999"/>
    <a:midPointStop offset="0.5" stop-color="#999999"/>
    <a:midPointStop offset="0.5" stop-color="#F2F2F2"/>
    <a:midPointStop offset="0.5" stop-color="#F2F2F2"/>
    <a:midPointStop offset="1" stop-color="#999999"/>
  </linearGradient>
  <path fill="url(#SVGID_8_)" d="M69.4 113.8h-3.7l-0.8 3.5h3.1l-0.1 0.5h-3.1l-0.8 3.6h4.1l0.4-0.9h0.2l-0.3 1.5h-6.3l0-0.3 1-0.2 1.6-7.7 -0.9-0.2 0-0.3h6l-0.5 1.7h-0.2L69.4 113.8z"/>
  <linearGradient id="SVGID_9_" gradientUnits="userSpaceOnUse" x1="69.29" y1="117.62" x2="79.8" y2="117.62">
    <stop offset="0" stop-color="#999999"/>
    <stop offset="0.5" stop-color="#F2F2F2"/>
    <stop offset="1" stop-color="#999999"/>
    <a:midPointStop offset="0" stop-color="#999999"/>
    <a:midPointStop offset="0.5" stop-color="#999999"/>
    <a:midPointStop offset="0.5" stop-color="#F2F2F2"/>
    <a:midPointStop offset="0.5" stop-color="#F2F2F2"/>
    <a:midPointStop offset="1" stop-color="#999999"/>
  </linearGradient>
  <path fill="url(#SVGID_9_)" d="M78.7 113.8l-1.6 7.7 0.9 0.2 0 0.3h-1.9l-3.4-7.9 -1.6 7.4c0.3 0.1 0.6 0.1 0.9 0.2 0 0.1 0 0.2 0 0.3h-2.7c0-0.1 0-0.2 0.1-0.3l1-0.2 1.6-7.7 -0.9-0.2 0.1-0.3h2l3.3 7.7 1.6-7.7h1.7l-0.1 0.3L78.7 113.8z"/>
  <linearGradient id="SVGID_10_" gradientUnits="userSpaceOnUse" x1="79.92" y1="117.62" x2="87.49" y2="117.62">
    <stop offset="0" stop-color="#999999"/>
    <stop offset="0.5" stop-color="#F2F2F2"/>
    <stop offset="1" stop-color="#999999"/>
    <a:midPointStop offset="0" stop-color="#999999"/>
    <a:midPointStop offset="0.5" stop-color="#999999"/>
    <a:midPointStop offset="0.5" stop-color="#F2F2F2"/>
    <a:midPointStop offset="0.5" stop-color="#F2F2F2"/>
    <a:midPointStop offset="1" stop-color="#999999"/>
  </linearGradient>
  <path fill="url(#SVGID_10_)" d="M86.8 113.8h-2.6l-1.6 7.7 0.9 0.2 0 0.3h-2.7l0-0.3 1-0.2 1.6-7.7h-2.7l-0.4 0.9h-0.3l0.2-1.5h7.4l-0.4 1.5h-0.3L86.8 113.8z"/>
  <linearGradient id="SVGID_11_" gradientUnits="userSpaceOnUse" x1="86.61" y1="117.65" x2="94.01" y2="117.65">
    <stop offset="0" stop-color="#999999"/>
    <stop offset="0.5" stop-color="#F2F2F2"/>
    <stop offset="1" stop-color="#999999"/>
    <a:midPointStop offset="0" stop-color="#999999"/>
    <a:midPointStop offset="0.5" stop-color="#999999"/>
    <a:midPointStop offset="0.5" stop-color="#F2F2F2"/>
    <a:midPointStop offset="0.5" stop-color="#F2F2F2"/>
    <a:midPointStop offset="1" stop-color="#999999"/>
  </linearGradient>
  <path fill="url(#SVGID_11_)" d="M87.2 121c0.5 0.4 1.3 0.7 2.2 0.7 1.3 0 2.5-0.8 2.7-1.7 0.1-0.5 0.2-1.5-1.8-2.1 -1.7-0.5-2.6-1.2-2.3-2.5 0.2-1.1 1.5-2.2 3.5-2.2 1.6 0 2.2 0.2 2.6 0.5l-0.4 1.3h-0.3l0-0.9c-0.8-0.4-1.4-0.4-2.1-0.4 -1.1 0-2.2 0.7-2.4 1.7 -0.2 1.1 0.4 1.4 1.5 1.8 1.2 0.4 3 1 2.6 2.8 -0.4 1.9-2.6 2.3-3.8 2.3 -1.4 0-2.2-0.4-2.6-0.7l0.3-1.4h0.2L87.2 121z"/>
  <path fill="#FFFFFF" d="M219.8 80.4l5.5-25.6c-1.2 0.1-2.5 0.4-3.6 0.9l0.2-1.3c1.1-0.7 2.2-1.1 3.3-1.8h3.2l-5.9 27.8c0.8 0.3 2.1 0.5 3 0.8l-0.2 0.8h-9.1l0.2-0.8L219.8 80.4z"/>
  <path fill="#FFFFFF" d="M250.4 76.8h0.9l-0.7 5.2h-19.8c1.8-8 7.3-11.4 14-14.6 4.1-1.9 6.3-4.4 6.9-7.2 0.5-2.9-0.8-5.5-5.3-5.7 -4.1 0-6.8 2.5-7.7 3.5 -0.4 0.9-0.6 1.8-1.1 2.7h-0.9l0.6-4.3c0.5-0.5 4.8-3.8 9.5-3.8 6.3 0 8.5 3.5 7.6 7.6 -0.9 3.9-3.8 7.1-9.3 9.5 -4.8 2.2-9.1 5.2-10.4 10.2h14.4L250.4 76.8z"/>
  <path fill="#FFFFFF" d="M156.9 96.9h-12.3l-2.5 11.6h10.5l-0.4 1.7h-10.5l-2.5 12.1h13.7l1.3-3.1h0.8l-1 4.9h-20.9l0.2-0.8 3.3-0.7 5.5-25.8 -3-0.7 0.2-0.8h20l-1.6 5.7h-0.8L156.9 96.9z"/>
  <polygon fill="#FFFFFF" points="237.9 25 237.5 26.2 231.4 27.2 208.9 65.7 207 69 199.2 82.8 174.8 125 168 125 159.6 69.4 154.2 66.9 154.6 65 171.9 65 171.5 67 165.1 68.4 172.4 120.5 192.1 85.7 183.1 27.3 177.7 26.1 178.1 25 195.4 25 195 26.3 188.4 27.2 195.5 78.9 195.5 78.9 203.3 65.8 225.4 27.3 220.3 26.2 220.7 25 "/>
  <path fill="#FFFFFF" d="M213.4 96.1h-12.3l-2.5 11.6h10.5l-0.4 1.7h-10.5l-2.5 12.1h13.7l1.3-3.1h0.8l-1 4.9h-20.9l0.2-0.8 3.3-0.7 5.5-25.8 -3-0.7 0.2-0.8h20l-1.6 5.7h-0.8L213.4 96.1z"/>
  <path fill="#FFFFFF" d="M244.7 95.9l-5.5 25.8 3 0.7 -0.2 0.8h-6.3l-11.3-26.4 -5.3 24.8c0.9 0.2 2.1 0.5 3 0.8 -0.1 0.4-0.1 0.6-0.1 0.8h-9.1c0-0.3 0.2-0.6 0.2-0.8l3.3-0.7 5.5-25.8 -3-0.7 0.2-0.8h6.5l11 25.8 5.5-25.8h5.8l-0.2 0.8L244.7 95.9z"/>
  <path fill="#FFFFFF" d="M271.5 96.1h-8.8l-5.5 25.6 3 0.7 -0.2 0.8h-9l0.2-0.8 3.4-0.7 5.5-25.6h-9.1l-1.5 3.1h-0.8l0.6-4.9h24.6l-1.5 4.9h-0.9L271.5 96.1z"/>
  <path fill="#FFFFFF" d="M272.8 120c1.8 1.3 4.2 2.2 7.2 2.2 4.4 0 8.4-2.5 9.1-5.7 0.3-1.8 0.8-5.1-5.9-6.9 -5.7-1.7-8.8-3.9-7.8-8.5 0.8-3.8 5.1-7.3 11.6-7.3 5.5 0 7.4 0.7 8.7 1.7l-1.2 4.3h-0.9l-0.1-2.9c-2.6-1.3-4.7-1.5-7-1.5 -3.7 0-7.3 2.2-8.1 5.7 -0.8 3.6 1.3 4.8 5.1 6 4.2 1.3 9.9 3.3 8.6 9.4 -1.4 6.3-8.7 7.7-12.6 7.7 -4.8 0-7.4-1.4-8.6-2.3l0.9-4.7h0.8L272.8 120z"/>
</svg>
