<?xml version="1.0" encoding="utf-8"?>
<!-- Generator: Adobe Illustrator 18.0.0, SVG Export Plug-In . SVG Version: 6.00 Build 0)  -->
<!DOCTYPE svg PUBLIC "-//W3C//DTD SVG 1.1//EN" "http://www.w3.org/Graphics/SVG/1.1/DTD/svg11.dtd">
<svg version="1.1" id="Layer_2" xmlns="http://www.w3.org/2000/svg" xmlns:xlink="http://www.w3.org/1999/xlink" x="0px" y="0px"
	 width="800px" height="800px" viewBox="0 0 800 800" enable-background="new 0 0 800 800" xml:space="preserve">
<g>
	<g id="Groom">
		<polygon id="Neck" fill="#F8CEB6" points="503.6,158.5 483.5,158.5 483.5,201.4 503.6,201.4 523.6,201.4 523.6,158.5 		"/>
		<polygon id="Shirt" fill="#FFFFFF" points="525.6,185.1 503.6,185.1 481.5,185.1 459.4,201.4 459.4,265.1 503.6,265.1 
			547.7,265.1 547.7,201.4 		"/>
		<path id="Hand" fill="#FADBC9" d="M613.6,414.6l34.4-10.3c0,0,13.8,22.1-6.9,31.3C620.5,444.7,613.6,414.6,613.6,414.6z"/>
		<path id="Suit" fill="#5D5D5D" d="M612.7,416.3l37.8-11.2l-48.1-169.3c-2.6-26.6-18.1-34.4-18.1-34.4h-38.7l-42.1,61.9l-42.1-61.9
			h-38.7c0,0-15.5,7.7-18.1,34.4l-44.1,165.3l33.8,15.2l27.5-94.6v150.4c0,0-4.3,11.6,11.6,11.6c0,25.2,0,50.4,0,75.6
			c0,45.4,0,90.9,0,136.3c0,12,0,24.1,0,36.1c0,10-2.2,21.5,2.7,30.8c3.3,6.1,10.4,12.4,16.4,15.9c11.8,7,25.2,2.1,33.4-7.9
			c8.7-10.5,8.1-21.2,8.1-33.8c0.1-19,0-38,0-57c0-47.1,0-94.2,0-141.3c0-17.4,0-34.8,0-52.2h8.9h1.1h8.9c0,26.6,0,53.2,0,79.7
			c0,46.3,0,92.7,0,139c0,9.3,0,18.6,0,27.8c0,13.7-1.8,25.8,7.5,37.1c6.5,7.9,15.2,14.3,25.9,11.9c12.2-2.7,26-14.4,27.3-27.4
			c0.6-6.4-0.1-13.4-0.1-19.9c0-18,0-35.9,0-53.9c0-44.7,0-89.4,0-134.1c0-21,0-41.9,0-62.9c15.9,0,11.6-11.6,11.6-11.6V321.8
			L612.7,416.3z"/>
		<polygon id="Bow" fill="#9EC4C1" points="514.2,198.4 503.6,198.4 493,198.4 480.1,192.8 480.1,219.5 493,214.3 503.6,213.5 
			514.2,214.3 527,219.5 527,192.8 		"/>
		<ellipse id="Hair_1_" fill="#5D5D5D" cx="503.6" cy="97.8" rx="60.9" ry="67.4"/>
		<path id="Head_1_" fill="#F8CEB6" d="M557.4,108.9c0,0-14.9-48.7-53.9-32.1c-39-16.6-53.9,32.1-53.9,32.1
			c-13.8,18.3,3.4,23.5,3.4,23.5c12,34.4,29.8,40.3,29.8,40.3h20.6H524c0,0,17.8-5.9,29.8-40.3C554,132.4,571.2,127.2,557.4,108.9z"
			/>
		<path id="Hair_x5F_2" fill="#5D5D5D" d="M475.5,55.3c0,0-4.6,44.4,61.9,41.8c0,0,10.9,3.3,12,17.9c0,0,7.4,8.4,8-29.8
			C558,46.9,475.5,55.3,475.5,55.3z"/>
		<polygon id="Hankichief" fill="#FFF99C" points="531.3,268.7 564,268.7 550.6,255.3 		"/>
		<ellipse id="Button2" fill="#9EC4C5" cx="503.6" cy="300.9" rx="9.7" ry="9.2"/>
		<ellipse id="Button1" fill="#9EC4C5" cx="503.6" cy="353.6" rx="9.7" ry="9.2"/>
	</g>
	<g id="Bride">
		<path id="Headgear_x5F_2" opacity="0.4" fill="#FFFFFF" enable-background="new    " d="M363.3,105.2c-14.6,0.9-88.5,0-88.5,0
			s-73.9,0.9-88.5,0s-36.1,112.6-36.1,112.6c15,15,43,18.1,43,18.1l81.7,4.4l81.7-4.4c0,0,27.9-3,43-18.1
			C399.4,217.8,377.9,104.3,363.3,105.2z"/>
		<path id="Headgear" fill="#FEFFFE" d="M274.8,17.5C163,16.6,151,174.8,151,174.8c18.5,18.5,57.6,18,57.6,18h66.2H341
			c0,0,39.1,0.4,57.6-18C398.5,174.8,386.5,16.6,274.8,17.5z"/>
		<path id="Hair" fill="#5D5D5D" d="M354.7,174.8c0,0-8.6-8.6-10.3-31.8c-1.7-23.2,9.5-19.8-1.7-67c0,0-23.2-38.7-67.9-39.5
			C230.1,37.3,206.9,76,206.9,76c-11.2,47.3,0,43.8-1.7,67s-10.3,31.8-10.3,31.8c-25.8,46.4-10.3,65.5-10.3,65.5l20.6,28.5l69.6-3.7
			l69.6,3.7l20.6-28.5C365,240.3,380.5,221.2,354.7,174.8z"/>
		<path id="Brides_x5F_hands" fill="#F8CEB6" d="M363.3,228.1c-6.9-37-28.4-35.2-28.4-35.2h-60.2h-60.2c0,0-21.5-1.7-28.4,35.2
			c-6.9,37-31.8,193.4-31.8,193.4s10.3,31.8,31.8,5.2l28.4-153.9h60.2h60.2l28.4,153.9c21.5,26.6,31.8-5.2,31.8-5.2
			S370.2,265.1,363.3,228.1z"/>
		<g id="Gown">
			<polygon id="Dress" fill="#FFFFFF" points="323.8,307.2 323.8,296 334.1,240.1 334.1,192.8 320.3,192.8 320.3,238.4 274.8,265 
				274.8,265 229.2,238.4 229.2,192.8 215.5,192.8 215.5,240.1 225.8,296 225.8,307.2 147.6,779.9 274.8,779.9 274.8,779.9 
				402,779.9 			"/>
			<path id="Bust" fill="#FFFFFF" d="M333.2,243.1c-35.2-12-58.4,18.2-58.4,18.2s-23.2-30.2-58.4-18.2c0,0-11.2,30.9,9.5,54.2h49h49
				C344.4,274,333.2,243.1,333.2,243.1z"/>
			<rect id="belt" x="225.3" y="297.2" fill="#A1C4C4" width="98.8" height="12.9"/>
		</g>
		<polygon id="neck" fill="#F8CEB6" points="257.1,205.7 257.1,166.3 292.4,166.3 292.4,212.6 257.1,212.6 		"/>
		<path id="Head" fill="#F8CEB6" d="M328.3,110.1c0,0-1.2,7.2-1.9,4.9c0,0-12.6-31.9-51.6-34.2c-39,2.3-51.6,34.2-51.6,34.2
			c-0.8,2.3-1.9-4.9-1.9-4.9c-4.1,3.2-5.2,8.6-5.2,8.6c0.4,16.1,9.7,13.1,9.7,13.1c4.3,28.4,30.9,43,30.9,43h18.1h18.1
			c0,0,26.6-14.6,30.9-43c0,0,9.2,3,9.7-13.1C333.4,118.7,332.4,113.3,328.3,110.1z"/>
		<path id="Heart" fill="#FEFEFE" d="M324,68.5c-2-10.6-11.2-1.4-11.2-1.4s-9.2-9.2-11.2,1.4s11.2,16.6,11.2,16.6S326,79.1,324,68.5
			z"/>
	</g>
</g>
</svg>
